<svg width="115" height="31" viewBox="0 0 115 31" fill="none" xmlns="http://www.w3.org/2000/svg">
<g clip-path="url(#clip0)">
<path d="M29.9347 5.78531C29.9347 6.18156 29.8118 6.65706 29.5796 7.21181C29.3474 7.76656 29.047 8.37414 28.6783 9.02135C28.3096 9.66856 27.8999 10.3686 27.4492 11.0951C26.9986 11.8215 26.5479 12.5612 26.1109 13.3009C25.906 13.6311 25.6466 14.0669 25.3598 14.6085C25.0594 15.15 24.7589 15.718 24.4721 16.3256C24.1854 16.9332 23.9395 17.5143 23.7483 18.0823C23.5435 18.6634 23.4479 19.1389 23.4479 19.522C23.4479 19.6277 23.4616 19.7201 23.5025 19.8126C23.5298 19.905 23.6118 19.9447 23.721 19.9447C24.1307 19.9447 24.4858 19.8522 24.7862 19.6805C25.0867 19.5088 25.3871 19.2842 25.7149 19.0201C25.7695 18.9804 25.8241 18.954 25.8924 18.954C25.947 18.954 26.0016 18.9672 26.0426 18.9937C26.0836 19.0201 26.0972 19.0597 26.0972 19.1125C26.0836 19.1654 26.0426 19.2314 25.9607 19.2842C25.7831 19.4295 25.592 19.588 25.3735 19.7729C25.155 19.9579 24.9364 20.1164 24.7043 20.2749C24.4721 20.4334 24.2263 20.5522 23.9805 20.6579C23.7347 20.7636 23.4889 20.8032 23.2431 20.8032C22.847 20.8032 22.5193 20.6711 22.2735 20.4202C22.014 20.1692 21.8911 19.839 21.8911 19.4559C21.8911 19.0993 21.9594 18.6767 22.1096 18.2012C22.2462 17.7257 22.4373 17.1973 22.6832 16.6426C22.9153 16.0878 23.2021 15.5067 23.5298 14.9123C23.8439 14.3179 24.1854 13.7103 24.5404 13.1027C25.0184 12.2838 25.4964 11.4781 25.988 10.6988C26.466 9.91952 26.9166 9.19306 27.3127 8.53264C27.7087 7.87223 28.0364 7.31748 28.2823 6.85518C28.5281 6.39289 28.6646 6.0891 28.6646 5.9306C28.6646 5.87777 28.651 5.81172 28.61 5.74568C28.569 5.67964 28.5281 5.64002 28.4734 5.64002C28.2959 5.64002 28.0228 5.82493 27.6404 6.20797C27.258 6.59102 26.8483 7.07973 26.384 7.6741C25.9197 8.28168 25.4281 8.95531 24.9091 9.69498C24.3902 10.4479 23.8986 11.1875 23.4343 11.9272C22.7787 12.9839 22.1232 14.0405 21.4814 15.0972C20.8259 16.1539 20.2114 17.1049 19.6105 17.9634C19.0233 18.8219 18.4633 19.5088 17.9444 20.0503C17.4255 20.5919 16.9612 20.856 16.5651 20.856C16.0325 20.856 15.6775 20.7239 15.5136 20.4598C15.336 20.1956 15.2541 19.839 15.2541 19.3635C15.2541 18.9937 15.3497 18.5578 15.5272 18.0427C15.7048 17.5407 15.9506 16.986 16.2647 16.3916C16.5788 15.7972 16.9202 15.1632 17.3162 14.5028C17.7122 13.8424 18.1219 13.1688 18.5453 12.4951C18.9413 11.8744 19.3647 11.2271 19.829 10.5271C20.2933 9.84027 20.7303 9.19306 21.1263 8.58548C21.5224 7.97789 21.8638 7.44956 22.1232 6.97406C22.3964 6.51177 22.5193 6.20797 22.5193 6.04947C22.5193 6.00985 22.5193 5.94381 22.5193 5.83814C22.5193 5.73247 22.4783 5.67964 22.3964 5.65322C22.1232 5.65322 21.7682 5.85135 21.3448 6.23439C20.9078 6.61743 20.4435 7.10614 19.9519 7.70052C19.4466 8.29489 18.9413 8.96852 18.4087 9.69498C17.8761 10.4346 17.3845 11.1611 16.9065 11.8611C16.4286 12.5744 15.9916 13.2216 15.6092 13.816C15.2131 14.4236 14.9127 14.8859 14.6942 15.2161C14.1616 15.9822 13.6017 16.7218 13.0145 17.4087C12.4272 18.1087 11.7717 18.7295 11.0616 19.2578C10.3378 19.7862 9.5321 20.2088 8.63079 20.5126C7.71581 20.8296 6.69159 20.9749 5.5308 20.9749C4.8753 20.9749 4.21979 20.8957 3.56429 20.7239C2.90878 20.5654 2.32156 20.3013 1.78896 19.9579C1.25637 19.6145 0.819364 19.1786 0.491612 18.6502C0.150204 18.1219 -0.0136719 17.5011 -0.0136719 16.7879C-0.0136719 16.0746 0.122891 15.4142 0.409674 14.8198C0.696457 14.2254 1.07883 13.7235 1.57046 13.3009C2.04843 12.8782 2.622 12.548 3.26385 12.3102C3.9057 12.0725 4.57486 11.9536 5.29864 11.9536C5.72199 11.9536 6.13168 12.0196 6.54137 12.1385C6.95106 12.2706 7.31978 12.4555 7.63387 12.6933C7.94797 12.9442 8.20744 13.2348 8.39863 13.5914C8.58982 13.9481 8.68541 14.3443 8.68541 14.7934C8.68541 15.2821 8.57616 15.7048 8.35766 16.0746C8.13916 16.4444 7.85238 16.7482 7.51097 16.986C7.16956 17.2369 6.75987 17.4087 6.32287 17.5275C5.87221 17.6464 5.4352 17.6992 4.98455 17.6992C4.92992 17.6992 4.84798 17.6992 4.76604 17.686C4.67045 17.686 4.57486 17.6728 4.47926 17.6596C4.38367 17.6464 4.30173 17.62 4.21979 17.5936C4.13785 17.5672 4.11054 17.5143 4.11054 17.4615C4.11054 17.4351 4.11054 17.3954 4.11054 17.3426C4.11054 17.2898 4.1242 17.2766 4.15151 17.303C4.30173 17.3558 4.43829 17.3822 4.57486 17.3822C4.71142 17.3822 4.84798 17.3822 4.9982 17.3822C5.38058 17.3822 5.76296 17.3162 6.15899 17.1973C6.55502 17.0784 6.89643 16.8935 7.19687 16.6558C7.51097 16.4312 7.75678 16.1407 7.94797 15.8104C8.13916 15.4802 8.24841 15.1104 8.24841 14.7009C8.24841 14.3047 8.16647 13.9613 7.98894 13.6707C7.81141 13.3801 7.59291 13.1424 7.31978 12.9574C7.04665 12.7725 6.73256 12.6404 6.39115 12.5348C6.04974 12.4423 5.68102 12.4027 5.3123 12.4027C4.69776 12.4027 4.09688 12.5084 3.49601 12.7065C2.89513 12.9178 2.37619 13.1952 1.91187 13.565C1.44756 13.9349 1.07883 14.3839 0.778395 14.8991C0.491612 15.4274 0.355049 15.9954 0.355049 16.6294C0.355049 17.303 0.505269 17.8709 0.805708 18.3464C1.10615 18.8219 1.50218 19.2182 1.98015 19.5088C2.45812 19.8126 3.00438 20.0371 3.60526 20.1692C4.20614 20.3013 4.80701 20.3805 5.40789 20.3805C6.29555 20.3805 7.14225 20.2352 7.96163 19.9447C8.76735 19.6541 9.54576 19.2578 10.2832 18.7427C11.0206 18.2408 11.7171 17.6464 12.3999 16.9728C13.0691 16.2992 13.7109 15.5859 14.3255 14.8198C14.9127 14.0934 15.4726 13.3405 16.0052 12.5744C16.5378 11.8083 17.0431 11.0554 17.5484 10.329C18.04 9.60252 18.518 8.91569 18.9959 8.26848C19.4603 7.62127 19.9246 7.05331 20.3616 6.57781C20.7986 6.10231 21.2492 5.71926 21.6726 5.42868C22.1096 5.15131 22.5329 5.00601 22.9699 5.00601C23.2158 5.00601 23.4069 5.12489 23.5572 5.36264C23.7074 5.60039 23.7893 5.82493 23.7893 6.02306C23.7893 6.16835 23.721 6.39289 23.5981 6.70989C23.4616 7.02689 23.2977 7.38352 23.0792 7.79298C22.8607 8.20244 22.6285 8.63831 22.3554 9.11381C22.0823 9.58931 21.8091 10.0648 21.536 10.5271C21.2629 11.0026 20.9898 11.4517 20.7303 11.8744C20.4708 12.3102 20.2387 12.6801 20.0611 13.0103C19.7607 13.5254 19.4193 14.0802 19.0506 14.6745C18.6682 15.2689 18.3131 15.8633 17.9854 16.4444C17.644 17.0256 17.3708 17.5672 17.1523 18.0691C16.9202 18.571 16.8109 18.9804 16.8109 19.2974C16.8109 19.3239 16.8109 19.3635 16.8109 19.4295C16.8109 19.4956 16.8109 19.5484 16.8246 19.6144C16.8246 19.6805 16.8519 19.7201 16.8656 19.7597C16.8929 19.7994 16.9202 19.8258 16.9748 19.8258C17.2616 19.8258 17.6167 19.588 18.04 19.1257C18.4633 18.6634 18.9277 18.0427 19.4466 17.2898C19.9655 16.5369 20.5118 15.6784 21.099 14.7274C21.6862 13.7764 22.2871 12.8254 22.9017 11.8479C23.4479 10.9762 23.9942 10.1309 24.5541 9.29873C25.1003 8.47981 25.6466 7.74014 26.1519 7.10614C26.6571 6.47214 27.1488 5.97022 27.6267 5.58718C28.1047 5.20414 28.5281 5.00601 28.9104 5.00601C29.1563 5.00601 29.3884 5.08526 29.5933 5.23056C29.8254 5.37585 29.9347 5.56077 29.9347 5.78531ZM20.9351 5.05885C20.9898 5.11168 21.0034 5.19093 20.9761 5.2966C20.9488 5.40227 20.8942 5.42868 20.8396 5.37585C20.225 4.95318 19.5695 4.62297 18.8594 4.38522C18.1493 4.14747 17.4391 4.04181 16.7017 4.04181C16.4695 4.04181 16.2374 4.04181 16.0052 4.0286C15.773 4.01539 15.5409 4.04181 15.3224 4.09464C15.3634 4.30597 15.3907 4.53051 15.4316 4.76826C15.459 5.00601 15.4726 5.23056 15.4726 5.42868C15.4726 5.97022 15.377 6.52497 15.1995 7.10614C15.022 7.68731 14.7488 8.20243 14.4074 8.67794C14.066 9.15344 13.629 9.53648 13.1237 9.84027C12.6184 10.1441 12.0312 10.3026 11.3757 10.3026C10.6792 10.3026 10.133 10.1044 9.75061 9.69498C9.35457 9.29873 9.16338 8.77039 9.16338 8.13639C9.16338 7.42314 9.3136 6.80235 9.64136 6.2476C9.95545 5.70606 10.3651 5.24376 10.8568 4.84751C11.3484 4.45126 11.9083 4.12106 12.5365 3.8701C13.151 3.60593 13.7792 3.42101 14.3938 3.28893C14.2162 2.90589 13.9704 2.58889 13.6427 2.32472C13.3149 2.06055 12.9598 1.86243 12.5775 1.70393C12.1814 1.54543 11.7717 1.43976 11.3484 1.37372C10.9114 1.30768 10.5154 1.26805 10.133 1.26805C9.21801 1.26805 8.39863 1.43976 7.66119 1.79639C6.92374 2.15301 6.30921 2.62851 5.80393 3.2493C5.28499 3.8701 4.90261 4.62297 4.62948 5.48151C4.35635 6.35327 4.21979 7.31748 4.21979 8.36094C4.21979 8.65152 4.15151 8.79681 4.0286 8.81002C3.9057 8.82323 3.83741 8.65152 3.83741 8.32131C3.83741 7.27785 3.97398 6.30043 4.26076 5.40227C4.53389 4.5041 4.95723 3.7116 5.50349 3.03797C6.0634 2.37755 6.74621 1.84922 7.59291 1.46618C8.42594 1.08314 9.42285 0.88501 10.5563 0.88501C11.5396 0.88501 12.3999 1.06993 13.151 1.45297C13.8885 1.83601 14.5576 2.41718 15.1449 3.20968C15.2814 3.18326 15.418 3.17005 15.5409 3.17005C15.6638 3.17005 15.8004 3.17005 15.9369 3.17005C16.8792 3.18326 17.7805 3.36818 18.6545 3.7248C19.5149 4.04181 20.2796 4.5041 20.9351 5.05885ZM14.8717 5.54756C14.8717 5.2966 14.8581 5.05885 14.8444 4.84751C14.8308 4.63618 14.7761 4.38522 14.7079 4.12106C14.2572 4.13426 13.7519 4.25314 13.1647 4.45126C12.5911 4.6626 12.0449 4.95318 11.5396 5.32301C11.0206 5.69285 10.5973 6.12872 10.2422 6.61743C9.88717 7.10614 9.72329 7.66089 9.72329 8.25527C9.72329 8.75719 9.90083 9.14023 10.2559 9.37798C10.611 9.62894 11.0343 9.76102 11.5259 9.76102C12.0858 9.76102 12.5775 9.62894 12.9872 9.36477C13.3968 9.1006 13.7519 8.77039 14.0387 8.36094C14.3118 7.95148 14.5303 7.50239 14.6669 6.98727C14.8034 6.49856 14.8717 6.00985 14.8717 5.54756Z" fill="#333333"/>
<path d="M34.687 19.3502C34.6324 19.4955 34.6187 19.6408 34.6187 19.7729C34.6187 19.905 34.6461 20.0371 34.7143 20.1295C34.769 20.2352 34.8919 20.2748 35.0557 20.2748C35.2606 20.2748 35.5064 20.1692 35.7795 19.971C36.0527 19.7729 36.3941 19.5087 36.7901 19.1521C36.8584 19.0993 36.913 19.1257 36.9676 19.2182C37.0223 19.3238 36.9949 19.4163 36.913 19.5087C36.7764 19.6672 36.6126 19.8257 36.435 19.9975C36.2575 20.1692 36.0527 20.3145 35.8068 20.4333C35.561 20.5654 35.2879 20.6711 34.9875 20.7503C34.6734 20.8428 34.332 20.8824 33.9359 20.8824C33.6082 20.8824 33.3624 20.8164 33.1985 20.6975C33.0346 20.5786 32.9254 20.4201 32.8844 20.2352C32.8298 20.0503 32.8298 19.8522 32.8571 19.6276C32.8844 19.4031 32.9254 19.205 32.98 19.02C32.7751 19.2182 32.543 19.4295 32.2972 19.654C32.0377 19.8786 31.7782 20.0899 31.4914 20.2748C31.2047 20.473 30.9042 20.6315 30.6038 20.7635C30.3033 20.8956 30.0029 20.9617 29.7025 20.9617C29.0879 20.9617 28.6373 20.8164 28.3641 20.5126C28.0774 20.2088 27.9408 19.7333 27.9408 19.0597C27.9408 18.4917 28.0091 17.8973 28.1593 17.2765C28.2959 16.6557 28.5144 16.0482 28.7875 15.4406C29.0606 14.8462 29.3884 14.265 29.7981 13.7235C30.1941 13.1819 30.6311 12.6932 31.1364 12.2838C31.628 11.8743 32.1606 11.5441 32.7478 11.3064C33.335 11.0686 33.9496 10.9365 34.6051 10.9365C34.9602 10.9365 35.2606 11.0554 35.5201 11.2799C35.7659 11.5177 35.9298 11.8083 35.998 12.1781L36.435 11.2271H38.2513L34.8236 18.9804C34.7826 19.0861 34.7417 19.2182 34.687 19.3502ZM35.5747 12.4555C35.5064 12.3102 35.3972 12.1649 35.2606 12.0328C35.124 11.9139 34.9465 11.8083 34.7553 11.729C34.5641 11.6498 34.3729 11.6101 34.1954 11.6101C33.7584 11.6101 33.3487 11.7554 32.9527 12.0328C32.5566 12.3234 32.2016 12.68 31.8602 13.1291C31.5188 13.5782 31.2047 14.0933 30.9315 14.6481C30.6584 15.216 30.4262 15.784 30.2214 16.3519C30.0166 16.9199 29.88 17.4614 29.7707 17.9634C29.6615 18.4785 29.6205 18.888 29.6205 19.2182C29.6205 19.5352 29.7298 19.7861 29.9346 19.971C30.1395 20.156 30.358 20.2484 30.5901 20.2484C30.7403 20.2484 30.9588 20.156 31.2456 19.9578C31.5324 19.7729 31.8192 19.5484 32.1196 19.2974C32.4064 19.0597 32.6795 18.8087 32.9117 18.5577C33.1439 18.3068 33.2941 18.1219 33.3487 18.003L35.561 12.8914C35.643 12.7593 35.643 12.6008 35.5747 12.4555Z" fill="#333333"/>
<path d="M48.0976 12.6008C48.0976 12.8254 48.043 13.0367 47.9474 13.2348C47.8518 13.433 47.7016 13.6047 47.5377 13.75C47.3602 13.8952 47.169 14.0141 46.9505 14.0934C46.732 14.1858 46.4998 14.2255 46.2813 14.2255C46.1994 14.2255 46.1038 14.2122 45.9809 14.1726C45.858 14.1462 45.7624 14.0934 45.6532 14.0405C45.5439 13.9877 45.462 13.9085 45.38 13.8292C45.2981 13.75 45.2708 13.6707 45.2708 13.565C45.2708 13.4594 45.3117 13.3933 45.4073 13.3537C45.5029 13.3141 45.6122 13.2612 45.7351 13.1952C45.858 13.1292 45.9673 13.0367 46.0628 12.9046C46.1584 12.7857 46.1994 12.5744 46.1994 12.297C46.1994 11.9668 46.0628 11.7951 45.7897 11.7951C45.5712 11.7951 45.3391 11.8479 45.1069 11.9404C44.8747 12.0461 44.6426 12.1649 44.4241 12.3102C44.2056 12.4687 44.0007 12.6405 43.8095 12.8254C43.6184 13.0235 43.4408 13.2084 43.2906 13.4065L41.1329 18.3597C41.0919 18.4653 41.0373 18.5842 40.9827 18.7163C40.9144 18.8484 40.8598 18.9805 40.8188 19.1125C40.7642 19.2446 40.7232 19.3635 40.6822 19.4692C40.6413 19.5748 40.614 19.6409 40.614 19.6805C40.614 19.8126 40.6413 19.9447 40.6822 20.0635C40.7232 20.1956 40.8461 20.2485 41.0373 20.2485C41.1602 20.2485 41.3104 20.2088 41.4607 20.1164C41.6245 20.0371 41.7884 19.9315 41.9523 19.8126C42.1162 19.6937 42.2664 19.5748 42.4166 19.4428C42.5532 19.3239 42.6761 19.2182 42.7717 19.139C42.9219 19.0201 43.0038 19.0333 43.0448 19.1786C43.0721 19.3239 42.9902 19.4824 42.8126 19.6409C42.4712 19.9579 42.1025 20.2353 41.7201 20.473C41.3378 20.7108 40.8734 20.8296 40.3545 20.8296C39.9721 20.8296 39.6307 20.7372 39.3166 20.5523C39.0025 20.3673 38.8523 20.0768 38.8523 19.6805C38.8523 19.5484 38.8796 19.4031 38.9206 19.2314C38.9615 19.0729 39.0298 18.9012 39.0981 18.7163C39.1664 18.5314 39.2347 18.3597 39.3166 18.188C39.3849 18.0163 39.4532 17.8578 39.5078 17.7125L41.6792 12.8122C41.8703 12.3499 41.9523 12.0329 41.9386 11.8612C41.925 11.6894 41.8157 11.597 41.6382 11.597C41.447 11.597 41.2695 11.6498 41.1056 11.7423C40.9417 11.8479 40.7778 11.9536 40.6413 12.0989C40.4911 12.231 40.3545 12.3895 40.2179 12.548C40.0814 12.7065 39.9721 12.8386 39.8629 12.9442C39.7536 13.0499 39.6444 13.0763 39.5488 13.0103C39.4532 12.9442 39.4395 12.865 39.5215 12.7593C39.699 12.548 39.8902 12.3367 40.095 12.1121C40.2999 11.9008 40.5184 11.7027 40.7369 11.5309C40.969 11.3592 41.2012 11.2139 41.447 11.1083C41.6928 11.0026 41.9523 10.9366 42.2254 10.9366C42.7034 10.9366 43.0721 11.0951 43.3179 11.3989C43.5637 11.7159 43.673 12.0593 43.6457 12.4423C43.7549 12.3235 43.9051 12.1782 44.0963 12.0065C44.2875 11.8347 44.4924 11.663 44.7382 11.5045C44.9703 11.3328 45.2162 11.2007 45.4893 11.0819C45.7624 10.9762 46.0355 10.9102 46.3223 10.9102C46.5681 10.9102 46.8003 10.9366 47.0051 10.9762C47.21 11.029 47.4012 11.1083 47.5514 11.2404C47.7016 11.3724 47.8382 11.5442 47.9338 11.7555C48.043 11.9932 48.0976 12.2706 48.0976 12.6008Z" fill="#333333"/>
<path d="M49.9548 18.7559C49.9002 18.8879 49.8319 19.0332 49.791 19.1521C49.7363 19.2842 49.6954 19.3899 49.6544 19.4955C49.6134 19.6012 49.5861 19.6672 49.5861 19.7069C49.5861 19.839 49.6134 19.971 49.6544 20.1031C49.6954 20.2352 49.8183 20.3012 50.0095 20.3012C50.146 20.3012 50.2963 20.2616 50.4601 20.1692C50.624 20.0899 50.7879 19.9842 50.9381 19.8522C51.0883 19.7333 51.2522 19.6012 51.3888 19.4823C51.5253 19.3635 51.6482 19.2578 51.7438 19.1785C51.894 19.0597 51.976 19.0729 52.017 19.2182C52.0443 19.3635 51.9623 19.522 51.7848 19.6805C51.4434 19.9975 51.0747 20.2748 50.6923 20.5126C50.2963 20.7503 49.8456 20.8692 49.3267 20.8692C48.9443 20.8692 48.6029 20.7767 48.2888 20.5918C47.9747 20.4069 47.8245 20.1163 47.8245 19.7201C47.8245 19.588 47.8518 19.4427 47.8927 19.271C47.9337 19.1125 48.002 18.9408 48.0703 18.7559C48.1386 18.5709 48.2068 18.3992 48.2888 18.2275C48.3571 18.0558 48.4253 17.8973 48.48 17.752L50.6104 12.8121C50.8015 12.3498 50.8835 12.0328 50.8698 11.8611C50.8562 11.6894 50.7469 11.5969 50.5694 11.5969C50.3782 11.5969 50.2007 11.6498 50.0368 11.7422C49.8729 11.8479 49.709 11.9536 49.5588 12.0989C49.4086 12.2309 49.272 12.3894 49.1355 12.5479C48.9989 12.7064 48.8897 12.8385 48.7804 12.9442C48.6712 13.0499 48.5619 13.0763 48.4663 13.0102C48.3707 12.9442 48.3571 12.8649 48.439 12.7593C48.6165 12.5479 48.8077 12.3366 49.0126 12.1121C49.2174 11.9007 49.4359 11.7026 49.6544 11.5309C49.8729 11.3592 50.1187 11.2139 50.3645 11.1082C50.6104 11.0026 50.8698 10.9365 51.143 10.9365C51.4434 10.9365 51.6892 11.0026 51.8941 11.1346C52.0989 11.2667 52.2491 11.4384 52.3584 11.6366C52.4676 11.8479 52.5086 12.0724 52.5222 12.3102C52.5222 12.5611 52.4813 12.7857 52.3857 13.0102L50.0641 18.3596C50.0641 18.4917 50.0095 18.6106 49.9548 18.7559ZM54.6663 7.44952C54.6663 7.75331 54.557 8.01748 54.3249 8.22881C54.0927 8.44014 53.8196 8.55902 53.4918 8.55902C53.1777 8.55902 52.9046 8.45335 52.6861 8.22881C52.454 8.01748 52.3447 7.75331 52.3447 7.44952C52.3447 7.13252 52.454 6.86835 52.6861 6.64381C52.9046 6.43247 53.1777 6.3136 53.4918 6.3136C53.8196 6.3136 54.0927 6.41927 54.3249 6.64381C54.557 6.86835 54.6663 7.13252 54.6663 7.44952Z" fill="#333333"/>
<path d="M79.7393 6.52493C78.9335 6.94759 78.2507 7.46272 77.7045 8.08351C77.1582 8.7043 76.6529 9.37793 76.2296 10.1044C75.7926 10.8441 75.3965 11.6101 75.0142 12.4159C74.6318 13.2216 74.2358 14.0405 73.8124 14.8462C73.3754 15.6651 72.8838 16.4708 72.3375 17.2501C71.7776 18.0426 71.1085 18.7691 70.3164 19.4559C70.4256 20.288 70.33 21.0541 70.0433 21.7542C69.7428 22.4542 69.3195 23.0618 68.7732 23.5637C68.227 24.0656 67.5715 24.4619 66.8204 24.7525C66.0693 25.0298 65.2909 25.1751 64.5124 25.1751C63.816 25.1751 63.1195 25.0562 62.423 24.8185C61.7266 24.5807 61.1666 24.1977 60.7433 23.6958C60.6887 23.6297 60.6887 23.5373 60.7296 23.4316C60.7706 23.3259 60.8389 23.2995 60.9208 23.3656C61.0574 23.4844 61.2213 23.6297 61.4261 23.7882C61.6173 23.9467 61.8631 24.092 62.1362 24.2505C62.4094 24.3958 62.7235 24.5147 63.0922 24.6204C63.4473 24.726 63.8706 24.7789 64.3486 24.7789C65.0587 24.7789 65.7552 24.6468 66.4243 24.3958C67.1071 24.1449 67.6944 23.8014 68.1997 23.3656C68.7049 22.9297 69.101 22.4146 69.4014 21.8334C69.6882 21.239 69.8248 20.6182 69.7838 19.9446C68.9917 20.4069 68.1314 20.7635 67.1891 21.0277C66.2468 21.2787 65.3182 21.4107 64.3759 21.4107C63.5838 21.4107 62.7781 21.3183 61.9724 21.1466C61.153 20.9749 60.4292 20.6843 59.7737 20.288C59.1182 19.8918 58.5856 19.3767 58.1622 18.7559C57.7389 18.1351 57.5341 17.3558 57.5341 16.4444C57.5341 15.7179 57.6979 15.0443 58.0393 14.4367C58.3671 13.8291 58.8178 13.2876 59.364 12.8385C59.9103 12.3894 60.5248 12.046 61.2213 11.7951C61.9041 11.5573 62.6142 11.4252 63.338 11.4252C64.1028 11.4252 64.7309 11.5309 65.2362 11.729C65.7279 11.9271 66.1375 12.1781 66.438 12.4687C66.7384 12.7725 66.9569 13.0895 67.0798 13.4329C67.2027 13.7763 67.271 14.0933 67.2847 14.3839C67.6671 14.5556 68.0221 14.7669 68.3499 15.0311C68.6776 15.2953 68.9644 15.5726 69.1966 15.8632C69.4287 16.167 69.6336 16.4708 69.7838 16.7878C69.934 17.118 70.0296 17.4218 70.0706 17.7256C70.4393 17.2765 70.8353 16.6821 71.2587 15.9557C71.682 15.216 72.1327 14.4367 72.597 13.5914C73.075 12.7461 73.5666 11.9007 74.0992 11.0422C74.6318 10.1836 75.1917 9.40435 75.7789 8.71751C76.3661 8.01747 76.9807 7.46272 77.6225 7.02684C78.2644 6.59097 78.9335 6.37963 79.6437 6.37963C79.7939 6.37963 79.8895 6.37963 79.9304 6.39284C79.9441 6.39284 79.8895 6.44568 79.7393 6.52493ZM69.5653 18.1615C69.497 17.8313 69.3741 17.5011 69.2102 17.1576C69.0327 16.8142 68.8415 16.4972 68.6093 16.2199C68.3908 15.9425 68.145 15.6915 67.8856 15.4802C67.6261 15.2689 67.3939 15.1236 67.1754 15.0443C67.1345 15.4538 67.0116 15.8236 66.834 16.167C66.6428 16.4972 66.397 16.7878 66.0966 17.0256C65.7961 17.2633 65.4547 17.4482 65.086 17.5803C64.7036 17.7124 64.3213 17.7784 63.9116 17.7784C63.7067 17.7784 63.4882 17.752 63.2834 17.686C63.0649 17.6199 62.86 17.5407 62.6825 17.4086C62.505 17.2897 62.3547 17.118 62.2455 16.9067C62.1226 16.7086 62.068 16.4576 62.068 16.167C62.068 15.8368 62.1499 15.5462 62.3274 15.2689C62.4913 15.0047 62.7235 14.7801 62.9966 14.582C63.2697 14.3971 63.5702 14.2386 63.9116 14.1461C64.2393 14.0405 64.5671 14.0009 64.8812 14.0009C65.3455 14.0009 65.8098 14.0537 66.2741 14.1594C66.2468 13.948 66.1785 13.7235 66.0556 13.4593C65.9327 13.2084 65.7552 12.9838 65.5094 12.7593C65.2499 12.5479 64.9221 12.3762 64.5124 12.2309C64.0891 12.0856 63.5702 12.0064 62.942 12.0064C62.3001 12.0064 61.6856 12.1121 61.112 12.3234C60.5248 12.5347 60.0195 12.8385 59.5689 13.2216C59.1182 13.6178 58.7768 14.0801 58.5173 14.6216C58.2578 15.1632 58.1213 15.7576 58.1213 16.4048C58.1213 17.1444 58.2852 17.7916 58.6266 18.3464C58.9543 18.9012 59.3913 19.3634 59.9376 19.7333C60.4702 20.1031 61.0847 20.3805 61.7539 20.5654C62.423 20.7503 63.0922 20.8428 63.775 20.8428C64.1301 20.8428 64.5807 20.7767 65.1406 20.6182C65.7005 20.4729 66.2605 20.2748 66.834 20.0371C67.4076 19.7993 67.9402 19.5087 68.4591 19.1785C68.9371 18.8747 69.3195 18.5181 69.5653 18.1615ZM83.3036 8.55901C83.3036 9.04772 83.1943 9.43076 82.9895 9.70814C82.771 9.98551 82.5115 10.1968 82.2111 10.3553C81.897 10.5138 81.5692 10.6195 81.2005 10.6856C80.8318 10.7516 80.4904 10.8176 80.1899 10.8573C79.8758 10.9101 79.6163 10.9761 79.4115 11.0686C79.193 11.1611 79.0974 11.2931 79.0974 11.4781C79.0974 11.6366 79.2067 11.8083 79.4388 11.98C79.671 12.1649 79.9168 12.3894 80.1899 12.68C80.463 12.9706 80.7225 13.3404 80.9547 13.7763C81.1732 14.2122 81.2961 14.7669 81.2961 15.4141C81.2961 16.0349 81.1732 16.6689 80.9274 17.3162C80.6815 17.9634 80.3401 18.5445 79.9168 19.0729C79.4798 19.6012 78.9745 20.0239 78.3736 20.3673C77.7727 20.6975 77.1309 20.8692 76.4208 20.8692C76.093 20.8692 75.7926 20.8428 75.4921 20.7899C75.2054 20.7371 74.9595 20.6447 74.741 20.4994C74.5225 20.3673 74.3587 20.1692 74.2358 19.9314C74.1128 19.6937 74.0446 19.4031 74.0446 19.0332C74.0446 18.6106 74.1265 18.2143 74.2767 17.8577C74.4269 17.4879 74.6454 17.1709 74.9186 16.8803C75.1917 16.5897 75.5058 16.3519 75.8745 16.1538C76.2432 15.9689 76.6256 15.8236 77.0353 15.7444C77.1855 15.7179 77.2811 15.7311 77.3221 15.7708C77.3631 15.8236 77.3084 15.8632 77.1582 15.9029C76.3388 16.0878 75.6833 16.4576 75.1917 16.9991C74.7001 17.5539 74.4543 18.2407 74.4543 19.0729C74.4543 19.3238 74.5225 19.5352 74.6318 19.7201C74.7547 19.8918 74.9049 20.0503 75.1098 20.1559C75.3009 20.2748 75.5058 20.3541 75.7379 20.4069C75.9564 20.4597 76.1749 20.4862 76.3798 20.4862C76.7895 20.4862 77.1992 20.3409 77.5952 20.0371C77.9912 19.7333 78.36 19.3634 78.6604 18.9012C78.9745 18.4521 79.2203 17.9502 79.4115 17.4086C79.6027 16.8671 79.6983 16.3519 79.6983 15.8368C79.6983 15.2556 79.589 14.7669 79.3569 14.3707C79.1247 13.9744 78.8789 13.6442 78.6194 13.3536C78.36 13.0763 78.1005 12.8517 77.882 12.6536C77.6498 12.4687 77.5406 12.297 77.5406 12.1385C77.5406 11.729 77.6498 11.4384 77.8547 11.2403C78.0595 11.0554 78.3327 10.9233 78.6604 10.8441C78.9745 10.7648 79.3296 10.712 79.6983 10.6856C80.067 10.6591 80.4084 10.5931 80.7362 10.4742C81.0503 10.3686 81.3234 10.1836 81.5419 9.94589C81.7467 9.70814 81.856 9.3251 81.856 8.80997C81.856 8.57222 81.774 8.32126 81.6238 8.0703C81.46 7.80614 81.2824 7.55518 81.0776 7.29101C80.8591 7.02684 80.6542 6.78909 80.4357 6.55134C80.2172 6.3268 80.0397 6.11547 79.9031 5.93055C79.4798 6.07584 79.0428 6.18151 78.6058 6.24755C78.1551 6.31359 77.7045 6.35322 77.2401 6.35322C76.5437 6.35322 75.8609 6.28718 75.1917 6.1683C74.5225 6.04943 73.8534 5.87772 73.2115 5.66638C73.0067 6.12868 72.7472 6.57776 72.4468 7.02684C72.1463 7.47593 71.7913 7.85897 71.3816 8.20239C70.9719 8.5458 70.5076 8.82318 69.9886 9.03451C69.4697 9.24585 68.8961 9.35151 68.2679 9.35151C67.9538 9.35151 67.6397 9.29868 67.3393 9.1798C67.0389 9.07414 66.7657 8.91564 66.5472 8.71751C66.3151 8.51939 66.1239 8.28164 65.9873 8.01747C65.8371 7.7533 65.7688 7.44951 65.7688 7.13251C65.7688 6.60418 65.9327 6.12867 66.2741 5.6928C66.6019 5.27013 67.0252 4.9003 67.5168 4.60971C68.0085 4.31913 68.5411 4.09459 69.101 3.93609C69.6609 3.77759 70.1798 3.69834 70.6441 3.69834C70.9582 3.69834 71.3133 3.75117 71.7093 3.84363C72.1054 3.9493 72.4468 4.02855 72.7472 4.09459C72.7062 3.36813 72.4877 2.77375 72.0917 2.29825C71.6957 1.82275 71.2314 1.43971 70.7124 1.16234C70.1798 0.88496 69.6472 0.686834 69.1146 0.567959C68.5684 0.462292 68.145 0.396251 67.8173 0.396251C66.9842 0.396251 66.1649 0.541542 65.3728 0.818918C64.5807 1.1095 63.8706 1.49254 63.2561 1.99446C62.6279 2.49638 62.1362 3.07755 61.7539 3.75117C61.3715 4.4248 61.194 5.15126 61.194 5.93055C61.194 6.07584 61.194 6.22113 61.2076 6.37963C61.2076 6.53813 61.2349 6.68343 61.2622 6.82872C61.3169 7.1193 61.2896 7.25139 61.194 7.22497C61.0847 7.19855 61.0028 7.07968 60.9345 6.86834C60.8799 6.70984 60.8389 6.55134 60.7979 6.37963C60.757 6.22113 60.7433 6.04943 60.7433 5.87772C60.7433 4.95313 60.9618 4.13421 61.3988 3.39455C61.8358 2.66809 62.3957 2.0605 63.0922 1.54538C63.775 1.04346 64.5534 0.660418 65.3864 0.383042C66.2331 0.132084 67.0525 0 67.8582 0C68.9234 0 69.8521 0.171709 70.6441 0.515126C71.4362 0.858543 72.119 1.46613 72.6926 2.33788C72.9247 2.6813 73.0886 3.02471 73.1842 3.38134C73.2798 3.73796 73.3071 4.04176 73.2662 4.30592C73.6076 4.49084 73.9899 4.67576 74.4269 4.83426C74.8503 5.00597 75.3009 5.16447 75.7653 5.29655C76.2296 5.44184 76.6939 5.54751 77.1446 5.62676C77.5952 5.70601 78.0186 5.74563 78.4009 5.74563C78.7014 5.74563 78.9882 5.70601 79.2886 5.63997C79.5754 5.57392 79.8349 5.48147 80.0807 5.38901C80.3265 5.29655 80.545 5.2173 80.7498 5.13805C80.941 5.07201 81.1049 5.03238 81.2141 5.03238C81.2415 5.03238 81.2688 5.03238 81.3097 5.01917C81.337 5.01917 81.3644 5.03238 81.378 5.07201C81.4736 5.36259 81.6238 5.63997 81.8423 5.91734C82.0472 6.19472 82.2657 6.47209 82.4842 6.76268C82.7027 7.05326 82.8939 7.34384 83.0577 7.63443C83.2216 7.92501 83.3036 8.24201 83.3036 8.55901ZM66.2058 14.7009C66.0146 14.6349 65.8235 14.5952 65.6323 14.5688C65.4411 14.5424 65.2635 14.5292 65.1133 14.5292C64.8129 14.5292 64.5124 14.5556 64.2257 14.6216C63.9389 14.6877 63.6794 14.7801 63.4609 14.9122C63.2288 15.0443 63.0512 15.216 62.9147 15.4406C62.7644 15.6519 62.6962 15.9293 62.6962 16.2595C62.6962 16.6425 62.8054 16.9067 63.0102 17.052C63.2151 17.1973 63.5019 17.2765 63.8569 17.2765C64.1847 17.2765 64.4988 17.1973 64.7856 17.052C65.0724 16.9067 65.3182 16.7086 65.523 16.4576C65.7279 16.2199 65.8917 15.9425 66.0146 15.6387C66.1375 15.3085 66.2058 15.0047 66.2058 14.7009ZM72.5697 5.49467C72.3785 5.41542 72.16 5.33617 71.9278 5.23051C71.6957 5.13805 71.4499 5.04559 71.1767 4.97955C70.9036 4.9003 70.6305 4.83426 70.3437 4.78142C70.0569 4.72859 69.7701 4.70217 69.4833 4.70217C69.1283 4.70217 68.7596 4.75501 68.3772 4.88709C67.9948 5.00597 67.6534 5.17767 67.3393 5.38901C67.0252 5.60034 66.7794 5.87772 66.5882 6.18151C66.3834 6.49851 66.2878 6.84193 66.2878 7.23818C66.2878 7.84576 66.4926 8.29485 66.9023 8.57222C67.312 8.8496 67.8036 8.98168 68.3772 8.98168C68.8005 8.98168 69.2512 8.87601 69.7155 8.67789C70.1935 8.47976 70.6305 8.20239 71.0402 7.87218C71.4499 7.54197 71.7913 7.17213 72.0781 6.74947C72.3785 6.3268 72.5287 5.91734 72.5697 5.49467Z" fill="#333333"/>
<path d="M89.6128 19.3502C89.5582 19.4955 89.5445 19.6408 89.5445 19.7729C89.5445 19.905 89.5718 20.0371 89.6401 20.1295C89.6948 20.2352 89.8177 20.2748 89.9815 20.2748C90.1864 20.2748 90.4322 20.1692 90.7053 19.971C90.9784 19.7729 91.3198 19.5087 91.7159 19.1521C91.7842 19.0993 91.8388 19.1257 91.8934 19.2182C91.948 19.3238 91.9207 19.4163 91.8388 19.5087C91.7022 19.6672 91.5384 19.8257 91.3608 19.9975C91.1833 20.1692 90.9784 20.3145 90.7326 20.4333C90.4868 20.5654 90.2137 20.6711 89.9133 20.7503C89.5992 20.8428 89.2577 20.8824 88.8617 20.8824C88.534 20.8824 88.2881 20.8164 88.1243 20.6975C87.9604 20.5786 87.8511 20.4201 87.8102 20.2352C87.7555 20.0503 87.7555 19.8522 87.7829 19.6276C87.8102 19.4031 87.8511 19.205 87.9058 19.02C87.7009 19.2182 87.4688 19.4295 87.223 19.654C86.9635 19.8786 86.704 20.0899 86.4172 20.2748C86.1304 20.473 85.83 20.6315 85.5296 20.7635C85.2291 20.8956 84.9287 20.9617 84.6282 20.9617C84.0137 20.9617 83.5631 20.8164 83.2899 20.5126C83.0031 20.2088 82.8666 19.7333 82.8666 19.0597C82.8666 18.4917 82.9349 17.8973 83.0851 17.2765C83.2216 16.6557 83.4401 16.0482 83.7133 15.4406C83.9864 14.8462 84.3142 14.265 84.7238 13.7235C85.1199 13.1819 85.5569 12.6932 86.0622 12.2838C86.5538 11.8743 87.0864 11.5441 87.6736 11.3064C88.2608 11.0686 88.8754 10.9365 89.5309 10.9365C89.8859 10.9365 90.1864 11.0554 90.4458 11.2799C90.6917 11.5177 90.8555 11.8083 90.9238 12.1781L91.3608 11.2271H93.1361L89.7357 18.954C89.6947 19.0861 89.6538 19.2182 89.6128 19.3502ZM90.5005 12.4555C90.4322 12.3102 90.3229 12.1649 90.1864 12.0328C90.0498 11.9139 89.8723 11.8083 89.6811 11.729C89.4899 11.6498 89.2987 11.6101 89.1212 11.6101C88.6842 11.6101 88.2745 11.7554 87.8785 12.0328C87.4824 12.3234 87.1274 12.68 86.7859 13.1291C86.4445 13.5782 86.1304 14.0933 85.8573 14.6481C85.5842 15.216 85.352 15.784 85.1472 16.3519C84.9423 16.9199 84.8058 17.4614 84.6965 17.9634C84.5873 18.4785 84.5463 18.888 84.5463 19.2182C84.5463 19.5352 84.6556 19.7861 84.8604 19.971C85.0653 20.156 85.2838 20.2484 85.5159 20.2484C85.6661 20.2484 85.8846 20.156 86.1714 19.9578C86.4582 19.7729 86.745 19.5484 87.0454 19.2974C87.3322 19.0597 87.6053 18.8087 87.8375 18.5577C88.0696 18.3068 88.2199 18.1219 88.2745 18.003L90.4868 12.8914C90.5688 12.7593 90.5688 12.6008 90.5005 12.4555Z" fill="#333333"/>
<path d="M104.84 5.81164C104.84 6.03618 104.771 6.24752 104.621 6.45885C104.471 6.67018 104.28 6.76264 104.02 6.76264C103.761 6.76264 103.556 6.6966 103.406 6.55131C103.256 6.41923 103.119 6.26073 103.01 6.10223C102.887 5.94372 102.778 5.79843 102.668 5.65314C102.545 5.52106 102.409 5.44181 102.245 5.44181C102.054 5.44181 101.849 5.52106 101.63 5.67956C101.412 5.83806 101.193 6.04939 100.961 6.32677C100.743 6.60414 100.511 6.92114 100.306 7.27777C100.087 7.6476 99.8961 8.03064 99.7186 8.4401L98.1071 12.1781C98.5988 11.7818 99.0767 11.478 99.5274 11.2667C99.978 11.0554 100.552 10.9497 101.234 10.9497C101.576 10.9497 101.863 11.0289 102.108 11.1742C102.341 11.3195 102.545 11.5044 102.696 11.7422C102.846 11.9799 102.969 12.2309 103.037 12.5215C103.105 12.8121 103.146 13.1026 103.146 13.3932C103.146 14.1989 102.982 15.0443 102.655 15.916C102.327 16.801 101.876 17.5935 101.289 18.3199C100.702 19.0464 100.033 19.6408 99.2543 20.1295C98.4759 20.605 97.6428 20.8427 96.7278 20.8427C96.3045 20.8427 95.9085 20.8031 95.5671 20.7239C95.212 20.6446 94.8979 20.5125 94.6384 20.3276C94.379 20.1427 94.1605 19.9049 94.0102 19.6012C93.86 19.2974 93.7781 18.9275 93.7781 18.4917C93.7781 18.3067 93.8054 18.069 93.8873 17.7784C93.9556 17.4878 94.0649 17.1708 94.2151 16.8142L97.2878 9.68169C97.5472 9.08731 97.834 8.50614 98.1618 7.95139C98.4759 7.39664 98.8582 6.89473 99.3089 6.45885C99.7459 6.02298 100.265 5.67956 100.852 5.41539C101.439 5.16443 102.122 5.03235 102.928 5.03235C103.146 5.03235 103.365 5.04556 103.597 5.05877C103.815 5.07197 104.02 5.1116 104.212 5.16443C104.389 5.21727 104.539 5.29652 104.662 5.40218C104.785 5.49464 104.84 5.63993 104.84 5.81164ZM101.234 13.38C101.234 13.1555 101.234 12.9441 101.221 12.7196C101.207 12.5083 101.18 12.3234 101.125 12.1516C101.071 11.9931 100.989 11.8479 100.852 11.7554C100.715 11.6629 100.552 11.6101 100.319 11.6101C100.156 11.6101 99.9371 11.6761 99.6503 11.7818C99.3635 11.9007 99.0904 12.046 98.8173 12.2309C98.5305 12.4158 98.2847 12.6007 98.0662 12.7856C97.834 12.9838 97.6974 13.1423 97.6292 13.2744L95.8675 17.3293C95.7173 17.6463 95.6217 17.9633 95.5944 18.2803C95.5534 18.5973 95.5397 18.8351 95.5397 18.9804C95.5397 19.1653 95.5944 19.3238 95.7173 19.4691C95.8265 19.6012 95.9767 19.7332 96.1406 19.8257C96.3045 19.9314 96.4957 19.9974 96.6869 20.0502C96.8781 20.1031 97.0556 20.1295 97.2195 20.1295C97.6019 20.1295 97.9569 20.0106 98.312 19.7464C98.6534 19.4955 98.9675 19.1785 99.2679 18.7822C99.5684 18.386 99.8415 17.9369 100.074 17.435C100.306 16.9331 100.511 16.4312 100.688 15.9292C100.866 15.4273 100.989 14.9518 101.084 14.5027C101.18 14.0537 101.234 13.6838 101.234 13.38Z" fill="#333333"/>
<path d="M115 12.6007C115 13.3668 114.768 14.1065 114.317 14.8197C113.853 15.533 113.279 16.2198 112.597 16.867C111.9 17.5142 111.163 18.1482 110.371 18.7426C109.565 19.337 108.827 19.8917 108.131 20.3936C107.434 20.8956 106.861 21.3711 106.41 21.7937C105.946 22.2164 105.727 22.5862 105.727 22.9164C105.727 23.1146 105.755 23.2599 105.823 23.3523C105.878 23.4448 105.96 23.5108 106.055 23.5372C106.151 23.5636 106.26 23.5768 106.397 23.5636C106.519 23.5504 106.656 23.5504 106.779 23.5504C106.875 23.5504 106.929 23.5901 106.956 23.6561C106.984 23.7221 106.997 23.8014 106.997 23.8674C106.997 23.9731 106.943 24.0788 106.847 24.1844C106.738 24.2901 106.629 24.3826 106.492 24.475C106.356 24.5543 106.219 24.6335 106.069 24.6864C105.932 24.7392 105.809 24.7656 105.714 24.7656C105.563 24.7656 105.413 24.7392 105.263 24.6864C105.113 24.6335 104.976 24.5543 104.84 24.4618C104.703 24.3694 104.608 24.2637 104.526 24.1316C104.444 23.9995 104.403 23.8674 104.403 23.7089C104.403 23.2202 104.553 22.7579 104.881 22.3353C105.195 21.8994 105.536 21.4767 105.932 21.0408C106.315 20.605 106.656 20.1559 106.97 19.6804C107.284 19.2181 107.448 18.6898 107.448 18.1218C107.448 17.9105 107.434 17.6331 107.421 17.3029C107.393 16.9727 107.38 16.6425 107.352 16.3123C107.325 15.9953 107.312 15.6915 107.298 15.4273C107.284 15.1631 107.271 14.9914 107.271 14.9122C107.271 14.4631 107.298 14.0933 107.352 13.8159C107.407 13.5385 107.489 13.2875 107.598 13.0894C107.708 12.8913 107.844 12.7196 108.022 12.5611C108.186 12.4158 108.39 12.2309 108.623 12.0328C108.39 12.1252 108.186 12.1648 108.035 12.1516C107.871 12.1384 107.721 12.112 107.598 12.0592C107.462 12.0195 107.339 11.9535 107.23 11.9007C107.107 11.8346 106.97 11.8082 106.806 11.8082C106.478 11.8082 106.192 11.9271 105.946 12.1516C105.7 12.3762 105.454 12.6007 105.222 12.8517C105.154 12.9177 105.072 12.9309 104.99 12.8649C104.894 12.812 104.908 12.7196 105.004 12.5611C105.154 12.3498 105.304 12.1384 105.454 11.9139C105.604 11.7025 105.768 11.5044 105.96 11.3195C106.151 11.1478 106.356 10.9893 106.588 10.8704C106.82 10.7515 107.079 10.6987 107.366 10.6987C107.694 10.6987 108.008 10.7515 108.322 10.8704C108.636 10.9893 108.937 11.0421 109.251 11.0421C109.442 11.0421 109.619 10.9761 109.783 10.844C109.947 10.7119 110.097 10.6459 110.234 10.6459C110.302 10.6459 110.343 10.6855 110.371 10.7515C110.398 10.8308 110.398 10.8968 110.398 10.9629C110.398 11.0553 110.33 11.1874 110.207 11.3723C110.084 11.5573 109.947 11.7818 109.811 12.0592C109.674 12.3365 109.537 12.6668 109.415 13.0498C109.292 13.4328 109.223 13.8687 109.223 14.3574C109.223 14.7537 109.237 15.1631 109.278 15.5858C109.305 16.0085 109.333 16.4311 109.333 16.8406C109.333 17.3161 109.278 17.8048 109.196 18.2935C109.1 18.7822 108.896 19.2181 108.582 19.6011C109.005 19.2709 109.483 18.8747 110.043 18.4256C110.589 17.9765 111.108 17.4746 111.6 16.933C112.091 16.4047 112.501 15.8368 112.842 15.2424C113.17 14.648 113.348 14.0404 113.348 13.4196C113.348 13.063 113.32 12.8253 113.279 12.6932C113.225 12.5611 113.143 12.495 113.006 12.495C112.911 12.495 112.801 12.5347 112.692 12.6007C112.569 12.6668 112.419 12.7064 112.214 12.7064C112.187 12.7064 112.119 12.68 111.996 12.6403C111.873 12.6007 111.818 12.5215 111.818 12.429C111.818 12.2837 111.873 12.1252 111.968 11.9535C112.078 11.7818 112.2 11.6233 112.364 11.4648C112.528 11.3195 112.719 11.1874 112.924 11.095C113.129 10.9893 113.361 10.9497 113.593 10.9497C114.14 10.9497 114.522 11.1214 114.727 11.4648C114.891 11.7818 115 12.1648 115 12.6007Z" fill="#333333"/>
<path d="M11.6898 30.2468V30.1543L11.9903 30.0354L13.2466 27.09H13.4242L14.6669 30.0354L14.981 30.1543V30.2468H13.8339V30.1543L14.2572 30.0354L13.8748 29.1108H12.6594L12.277 30.0486L12.7004 30.1675V30.26H11.6898V30.2468ZM12.7414 28.8731H13.7656L13.2466 27.6315L12.7414 28.8731Z" fill="#333333"/>
<path d="M16.1145 30.2471V30.1547L16.6061 30.0094V27.3281H15.7458L15.459 28.0281H15.3771V27.1035H18.2313V28.0281H18.1493L17.8625 27.3281H17.0022V30.0094L17.4938 30.1547V30.2471H16.1145Z" fill="#333333"/>
<path d="M18.9823 30.2471V30.1546L19.3647 30.0093V27.3412L18.9823 27.2092V27.1167H21.3039V27.9092H21.2219L20.9625 27.328H19.7607V28.5168H20.6211L20.8122 28.1205H20.8942V29.1244H20.8122L20.6211 28.7413H19.7607V30.0225H21.099L21.3585 29.4017H21.4404V30.2471H18.9823Z" fill="#333333"/>
<path d="M23.9805 30.2471V30.1546L24.3902 30.0094V27.3281H23.1474V27.5658C23.1474 28.0941 23.1201 28.5564 23.0791 28.9263C23.0382 29.3093 22.9699 29.6131 22.8606 29.8376C22.7787 30.0094 22.6968 30.1282 22.6012 30.1943C22.5056 30.2603 22.41 30.2999 22.3144 30.2999C22.2461 30.2999 22.1915 30.2867 22.1778 30.2735C22.1642 30.2603 22.1505 30.2207 22.1505 30.1679V29.9433L22.1778 29.9301H22.2188C22.3963 29.9301 22.5329 29.8376 22.6421 29.6527C22.7377 29.4678 22.806 29.1904 22.847 28.847C22.888 28.4904 22.9016 28.0809 22.9016 27.5922V27.3413L22.5192 27.196V27.1035H25.1686V27.196L24.7725 27.3413V30.0094L25.1686 30.1546V30.2471H23.9805Z" fill="#333333"/>
<path d="M27.2718 30.2471H26.0154V30.1547L26.3978 30.0094V27.3413L26.0154 27.196V27.1035H27.2718V27.196L26.7801 27.3413V28.4111H27.2718C27.6815 28.4111 28.0092 28.4904 28.2414 28.6489C28.4735 28.8074 28.5964 29.0187 28.5964 29.2829C28.5964 29.4678 28.5418 29.6263 28.4326 29.7716C28.3233 29.9169 28.1731 30.0358 27.9819 30.115C27.7907 30.2075 27.5449 30.2471 27.2718 30.2471ZM27.2445 28.6489H26.7938V30.0226H27.2854C27.5995 30.0226 27.818 29.9565 27.9682 29.8244C28.1185 29.6924 28.1867 29.5339 28.1867 29.3225C28.1867 29.0848 28.1048 28.9131 27.9546 28.7942C27.8044 28.7017 27.5722 28.6489 27.2445 28.6489Z" fill="#333333"/>
<path d="M29.2928 30.2471V30.1547L29.6752 30.0094V27.3413L29.2928 27.196V27.1035H31.6144V27.896H31.5325L31.273 27.3149H30.0713V28.5036H30.9316L31.1228 28.1074H31.2047V29.1112H31.1228L30.9316 28.7281H30.0713V30.0094H31.4096L31.669 29.3886H31.751V30.2339H29.2928V30.2471Z" fill="#333333"/>
<path d="M34.059 30.2471V30.1547L34.455 30.0094V27.3413L34.059 27.196V27.1035H35.2334V27.196L34.8374 27.3413V28.6225L36.2303 27.3281L35.8616 27.196V27.1035H36.8722V27.196L36.5717 27.2884L35.2197 28.53L36.8175 30.049L37.1316 30.1414V30.2339H36.4898L34.8374 28.6357V29.9962L35.2334 30.1414V30.2339H34.059V30.2471Z" fill="#333333"/>
<path d="M37.7734 30.2471V30.1547L38.1695 30.0094V27.3413L37.7734 27.196V27.1035H38.9342C39.3166 27.1035 39.6307 27.1696 39.8628 27.3016C40.095 27.4337 40.2179 27.6583 40.2179 27.9489C40.2179 28.1206 40.1633 28.2791 40.0404 28.4111C39.9175 28.5432 39.7536 28.6489 39.5488 28.7281C39.3439 28.8074 39.0981 28.847 38.8386 28.847H38.5518V29.9962L38.9888 30.1414V30.2339H37.7734V30.2471ZM38.5518 27.3281V28.6357H38.9479C39.2073 28.6357 39.4122 28.5696 39.5624 28.464C39.7126 28.3451 39.7946 28.1866 39.7946 28.0017C39.7946 27.7639 39.7126 27.5922 39.5624 27.4866C39.4122 27.3809 39.1937 27.3281 38.9069 27.3281H38.5518Z" fill="#333333"/>
<path d="M40.9963 30.2471V30.1547L41.3787 30.0094V27.3413L40.9963 27.196V27.1035H43.3179V27.896H43.236L42.9765 27.3149H41.7747V28.5036H42.6351L42.8263 28.1074H42.9082V29.1112H42.8263L42.6351 28.7281H41.7747V30.0094H43.1131L43.3725 29.3886H43.4545V30.2339H40.9963V30.2471Z" fill="#333333"/>
<path d="M45.9672 30.2996C45.6394 30.2996 45.3663 30.2336 45.1205 30.1015C44.8747 29.9694 44.6971 29.7845 44.5606 29.56C44.424 29.3354 44.3557 29.0712 44.3557 28.7807C44.3557 28.5429 44.3967 28.3316 44.4923 28.1202C44.5742 27.9089 44.6971 27.7372 44.861 27.5787C45.0112 27.4202 45.2024 27.3013 45.3936 27.2089C45.5984 27.1164 45.8169 27.0768 46.0491 27.0768C46.213 27.0768 46.3495 27.09 46.4588 27.1032C46.5681 27.1164 46.6773 27.156 46.7592 27.1824C46.8548 27.2221 46.9368 27.2617 47.0324 27.3013L47.046 28.0938H46.9504L46.691 27.5259C46.568 27.4466 46.4451 27.3806 46.3495 27.3277C46.254 27.2881 46.131 27.2617 46.0081 27.2617C45.7623 27.2617 45.5438 27.3145 45.3526 27.4334C45.1614 27.5523 45.0112 27.7108 44.902 27.9089C44.7927 28.107 44.7381 28.3448 44.7381 28.5957C44.7381 28.8995 44.7927 29.1637 44.902 29.3882C45.0112 29.6128 45.1614 29.7845 45.3526 29.9034C45.5438 30.0222 45.7487 30.0883 45.9945 30.0883C46.1584 30.0883 46.3086 30.0619 46.4178 30.0222C46.5407 29.9826 46.6363 29.9298 46.7319 29.8637L47.0187 29.3222H47.1006L47.046 30.0619C46.9504 30.1147 46.8548 30.1543 46.7592 30.1807C46.6636 30.2204 46.5407 30.2468 46.4178 30.26C46.2949 30.2864 46.1447 30.2996 45.9672 30.2996Z" fill="#333333"/>
<path d="M48.6712 30.2471V30.1547L49.1628 30.0094V27.3281H48.3024L48.0157 28.0281H47.9337V27.1035H50.7879V28.0281H50.7059L50.4192 27.3281H49.5588V30.0094L50.0504 30.1547V30.2471H48.6712Z" fill="#333333"/>
<path d="M51.5391 30.2471V30.1547L51.9214 30.0094V27.3413L51.5391 27.196V27.1035H52.7135V27.196L52.3038 27.3413V29.5206L54.0928 27.5526V27.3413L53.6831 27.196V27.1035H54.8576V27.196L54.4888 27.3413V30.0094L54.8712 30.1547V30.2471H53.6968V30.1547L54.1065 30.0094V27.8564L52.3038 29.8244V30.0094L52.7135 30.1547V30.2471H51.5391Z" fill="#333333"/>
<path d="M57.3976 30.2471V30.1546L57.8073 30.0094V27.3281H56.5645V27.5658C56.5645 28.0941 56.5372 28.5564 56.4963 28.9263C56.4553 29.3093 56.387 29.6131 56.2778 29.8376C56.1958 30.0094 56.1139 30.1282 56.0183 30.1943C55.9227 30.2603 55.8271 30.2999 55.7315 30.2999C55.6632 30.2999 55.6086 30.2867 55.5949 30.2735C55.5813 30.2603 55.5676 30.2207 55.5676 30.1679V29.9433L55.5949 29.9301H55.6359C55.8134 29.9301 55.95 29.8376 56.0593 29.6527C56.1685 29.4678 56.2231 29.1904 56.2641 28.847C56.3051 28.4904 56.3187 28.0809 56.3187 27.5922V27.3413L55.9364 27.196V27.1035H58.5857V27.196L58.1896 27.3413V30.0094L58.5857 30.1546V30.2471H57.3976Z" fill="#333333"/>
<path d="M60.6888 30.2471H59.4324V30.1547L59.8147 30.0094V27.3413L59.4324 27.196V27.1035H60.6888V27.196L60.1971 27.3413V28.4111H60.6888C61.0984 28.4111 61.4262 28.4904 61.6584 28.6489C61.8905 28.8074 62.0134 29.0187 62.0134 29.2829C62.0134 29.4678 61.9588 29.6263 61.8495 29.7716C61.7403 29.9169 61.5901 30.0358 61.3989 30.115C61.2077 30.2075 60.9619 30.2471 60.6888 30.2471ZM60.6614 28.6489H60.2108V30.0226H60.7024C61.0165 30.0226 61.235 29.9565 61.3852 29.8244C61.5354 29.6924 61.6037 29.5339 61.6037 29.3225C61.6037 29.0848 61.5218 28.9131 61.3716 28.7942C61.2214 28.7017 60.9892 28.6489 60.6614 28.6489Z" fill="#333333"/>
<path d="M62.7098 30.2471V30.1547L63.0922 30.0094V27.3413L62.7098 27.196V27.1035H63.8843V27.196L63.4746 27.3413V28.5168H65.2226V27.3413L64.8129 27.196V27.1035H65.9873V27.196L65.605 27.3413V30.0094L65.9873 30.1547V30.2471H64.8129V30.1547L65.2226 30.0094V28.7414H63.4746V30.0094L63.8843 30.1547V30.2471H62.7098Z" fill="#333333"/>
<path d="M68.1042 30.2471H66.8478V30.1547L67.2302 30.0094V27.3413L66.8478 27.196V27.1035H68.1042V27.196L67.6125 27.3413V28.4111H68.1042C68.5139 28.4111 68.8416 28.4904 69.0738 28.6489C69.3059 28.8074 69.4288 29.0187 69.4288 29.2829C69.4288 29.4678 69.3742 29.6263 69.265 29.7716C69.1557 29.9169 69.0055 30.0358 68.8143 30.115C68.6231 30.2075 68.3773 30.2471 68.1042 30.2471ZM68.0769 28.6489H67.6262V30.0226H68.1178C68.4319 30.0226 68.6504 29.9565 68.8006 29.8244C68.9509 29.6924 69.0191 29.5339 69.0191 29.3225C69.0191 29.0848 68.9372 28.9131 68.787 28.7942C68.6368 28.7017 68.4046 28.6489 68.0769 28.6489ZM69.9341 30.2471V30.1547L70.3165 30.0094V27.3413L69.9341 27.196V27.1035H71.0949V27.196L70.7125 27.3413V30.0094L71.0949 30.1547V30.2471H69.9341Z" fill="#333333"/>
<path d="M71.8187 30.2471V30.1546L72.1738 30.0225L73.2253 28.6885L72.2148 27.3412L71.9007 27.2092V27.1167H73.0751V27.2092L72.6927 27.3412V27.3677L73.4984 28.4375L74.3315 27.3677V27.3412L73.9627 27.2092V27.1167H74.946V27.2092L74.6456 27.328L73.635 28.6092L74.7002 30.0093L75.0689 30.1546V30.2471H73.8808V30.1546L74.2495 30.0225V30.0093L73.3892 28.8602L72.5152 30.0093V30.0225L72.9112 30.1546V30.2471H71.8187Z" fill="#333333"/>
<path d="M77.1993 30.2471V30.1547L77.5817 30.0094V27.3413L77.1993 27.196V27.1035H78.3738V27.196L77.9641 27.3413V28.5168H79.7121V27.3413L79.3024 27.196V27.1035H80.4768V27.196L80.0945 27.3413V30.0094L80.4768 30.1547V30.2471H79.3024V30.1547L79.7121 30.0094V28.7414H77.9777V30.0094L78.3874 30.1547V30.2471H77.1993Z" fill="#333333"/>
<path d="M81.1869 30.2471V30.1547L81.4873 30.0358L82.7437 27.0903H82.9213L84.164 30.0358L84.4781 30.1547V30.2471H83.3309V30.1547L83.7543 30.0358L83.3719 29.1112H82.1565L81.7741 30.049L82.1975 30.1679V30.2603H81.1869V30.2471ZM82.2384 28.8735H83.2627L82.7437 27.6319L82.2384 28.8735Z" fill="#333333"/>
<path d="M85.1609 30.2471V30.1547L85.5569 30.0094V27.3413L85.1609 27.196V27.1035H86.3217C86.704 27.1035 87.0181 27.1696 87.2503 27.3016C87.4825 27.4337 87.6054 27.6583 87.6054 27.9489C87.6054 28.1206 87.5507 28.2791 87.4278 28.4111C87.3049 28.5432 87.141 28.6489 86.9362 28.7281C86.7314 28.8074 86.4856 28.847 86.2261 28.847H85.9393V29.9962L86.3763 30.1414V30.2339H85.1609V30.2471ZM85.9256 27.3281V28.6357H86.3217C86.5811 28.6357 86.786 28.5696 86.9362 28.464C87.0864 28.3451 87.1684 28.1866 87.1684 28.0017C87.1684 27.7639 87.0864 27.5922 86.9362 27.4866C86.786 27.3809 86.5675 27.3281 86.2807 27.3281H85.9256Z" fill="#333333"/>
<path d="M88.7935 30.2471H88.1653V30.1546L88.493 30.0357L89.3944 28.7942C89.1349 28.7413 88.93 28.6357 88.7935 28.4904C88.6569 28.3451 88.5886 28.1734 88.5886 28.0017C88.5886 27.7111 88.6979 27.4997 88.9027 27.3412C89.1076 27.1827 89.4353 27.1167 89.8587 27.1167H91.0195V27.2092L90.6234 27.3545V30.0225L91.0195 30.1678V30.2603H89.8587V30.1678L90.2411 30.0225V28.8866H89.7631L88.7935 30.2471ZM89.804 28.6357H90.2411V27.328H89.845C89.5719 27.328 89.3534 27.3809 89.2168 27.4997C89.0803 27.6186 89.012 27.7771 89.012 27.9752C89.012 28.1602 89.0803 28.3187 89.2305 28.4507C89.3534 28.5828 89.5582 28.6357 89.804 28.6357Z" fill="#333333"/>
<path d="M92.0301 27.2092V27.1167H94.7341V27.2092L94.3517 27.3544V30.0357H94.8433V31.0132H94.7614L94.4473 30.2603H92.0437L91.7296 31.0132H91.6477V30.0357H92.0164C92.1667 29.6791 92.2759 29.3093 92.3305 28.913C92.3852 28.5168 92.4125 28.0941 92.4125 27.6318V27.3677L92.0301 27.2092ZM93.9556 30.0225V27.328H92.6719V27.6054C92.6719 28.0809 92.6446 28.5168 92.59 28.8998C92.5354 29.2829 92.4398 29.6659 92.3032 30.0093H93.9556V30.0225Z" fill="#333333"/>
<path d="M97.2058 30.2999C96.9737 30.2999 96.7688 30.2603 96.564 30.181C96.3728 30.1018 96.1953 29.9829 96.0587 29.8376C95.9221 29.6923 95.7992 29.5206 95.7309 29.3225C95.649 29.1244 95.608 28.913 95.608 28.6753C95.608 28.4375 95.649 28.2262 95.7309 28.0281C95.8129 27.83 95.9221 27.6582 96.0587 27.513C96.1953 27.3677 96.3728 27.262 96.564 27.1695C96.7552 27.0771 96.9737 27.0507 97.2058 27.0507C97.438 27.0507 97.6428 27.0903 97.8477 27.1695C98.0525 27.2488 98.2164 27.3677 98.3529 27.513C98.5032 27.6582 98.6124 27.83 98.6943 28.0281C98.7763 28.2262 98.8172 28.4375 98.8172 28.6753C98.8172 28.913 98.7763 29.1244 98.6943 29.3225C98.6124 29.5206 98.5032 29.6923 98.3529 29.8376C98.2027 29.9829 98.0388 30.0886 97.8477 30.181C97.6565 30.2471 97.438 30.2999 97.2058 30.2999ZM97.3151 30.0886C97.5336 30.0886 97.7247 30.0357 97.8886 29.9301C98.0525 29.8244 98.1754 29.6791 98.271 29.4942C98.3666 29.3093 98.4076 29.0847 98.4076 28.8206C98.4076 28.5036 98.3529 28.2262 98.23 27.9885C98.1208 27.7507 97.9569 27.5658 97.7657 27.4469C97.5745 27.3148 97.356 27.2488 97.1239 27.2488C96.9054 27.2488 96.7142 27.3016 96.5503 27.4073C96.3864 27.513 96.2499 27.6582 96.1543 27.8432C96.0587 28.0281 96.0177 28.2526 96.0177 28.5168C96.0177 28.8338 96.0724 29.1112 96.1953 29.3489C96.3045 29.5867 96.4684 29.7716 96.6596 29.9037C96.8508 30.0357 97.0692 30.0886 97.3151 30.0886Z" fill="#333333"/>
<path d="M99.6913 30.2471V30.1546L100.074 30.0093V27.3412L99.6913 27.2092V27.1167H100.797C101.016 27.1167 101.207 27.1431 101.371 27.1959C101.549 27.2488 101.685 27.328 101.781 27.4337C101.876 27.5394 101.931 27.6714 101.931 27.8299C101.931 27.9884 101.876 28.147 101.767 28.279C101.658 28.4111 101.494 28.5168 101.289 28.5828C101.59 28.6225 101.808 28.7017 101.972 28.8338C102.136 28.9659 102.218 29.1376 102.218 29.3489C102.218 29.5206 102.163 29.6791 102.054 29.8112C101.945 29.9433 101.781 30.0622 101.59 30.1414C101.398 30.2207 101.18 30.2603 100.92 30.2603H99.6913V30.2471ZM100.729 27.328H100.456V28.5168H100.756C100.989 28.5168 101.18 28.464 101.316 28.3583C101.453 28.2526 101.521 28.1205 101.521 27.9356C101.521 27.7375 101.453 27.579 101.316 27.4865C101.193 27.3809 100.989 27.328 100.729 27.328ZM100.92 28.7413H100.456V30.0357H100.948C101.207 30.0357 101.412 29.9697 101.562 29.8508C101.712 29.732 101.794 29.5735 101.794 29.3885C101.794 29.164 101.712 29.0055 101.562 28.8998C101.412 28.7942 101.193 28.7413 100.92 28.7413Z" fill="#333333"/>
</g>
<defs>
<clipPath id="clip0">
<rect width="115" height="31" fill="white"/>
</clipPath>
</defs>
</svg>
