<svg width="115" height="31" viewBox="0 0 115 31" fill="none" xmlns="http://www.w3.org/2000/svg">
<g clip-path="url(#clip0)">
<path d="M29.9347 5.78531C29.9347 6.18156 29.8118 6.65706 29.5796 7.21181C29.3474 7.76656 29.047 8.37414 28.6783 9.02135C28.3096 9.66856 27.8999 10.3686 27.4492 11.0951C26.9986 11.8215 26.5479 12.5612 26.1109 13.3009C25.906 13.6311 25.6466 14.0669 25.3598 14.6085C25.0594 15.15 24.7589 15.718 24.4721 16.3256C24.1854 16.9332 23.9395 17.5143 23.7483 18.0823C23.5435 18.6634 23.4479 19.1389 23.4479 19.522C23.4479 19.6277 23.4616 19.7201 23.5025 19.8126C23.5298 19.905 23.6118 19.9447 23.721 19.9447C24.1307 19.9447 24.4858 19.8522 24.7862 19.6805C25.0867 19.5088 25.3871 19.2842 25.7149 19.0201C25.7695 18.9804 25.8241 18.954 25.8924 18.954C25.947 18.954 26.0016 18.9672 26.0426 18.9937C26.0836 19.0201 26.0972 19.0597 26.0972 19.1125C26.0836 19.1654 26.0426 19.2314 25.9607 19.2842C25.7831 19.4295 25.592 19.588 25.3735 19.7729C25.155 19.9579 24.9364 20.1164 24.7043 20.2749C24.4721 20.4334 24.2263 20.5522 23.9805 20.6579C23.7347 20.7636 23.4889 20.8032 23.2431 20.8032C22.847 20.8032 22.5193 20.6711 22.2735 20.4202C22.014 20.1692 21.8911 19.839 21.8911 19.4559C21.8911 19.0993 21.9594 18.6767 22.1096 18.2012C22.2462 17.7257 22.4373 17.1973 22.6832 16.6426C22.9153 16.0878 23.2021 15.5067 23.5298 14.9123C23.8439 14.3179 24.1854 13.7103 24.5404 13.1027C25.0184 12.2838 25.4964 11.4781 25.988 10.6988C26.466 9.91952 26.9166 9.19306 27.3127 8.53264C27.7087 7.87223 28.0364 7.31748 28.2823 6.85518C28.5281 6.39289 28.6646 6.0891 28.6646 5.9306C28.6646 5.87777 28.651 5.81172 28.61 5.74568C28.569 5.67964 28.5281 5.64002 28.4734 5.64002C28.2959 5.64002 28.0228 5.82493 27.6404 6.20797C27.258 6.59102 26.8483 7.07973 26.384 7.6741C25.9197 8.28168 25.4281 8.95531 24.9091 9.69498C24.3902 10.4479 23.8986 11.1875 23.4343 11.9272C22.7787 12.9839 22.1232 14.0405 21.4814 15.0972C20.8259 16.1539 20.2114 17.1049 19.6105 17.9634C19.0233 18.8219 18.4633 19.5088 17.9444 20.0503C17.4255 20.5919 16.9612 20.856 16.5651 20.856C16.0325 20.856 15.6775 20.7239 15.5136 20.4598C15.336 20.1956 15.2541 19.839 15.2541 19.3635C15.2541 18.9937 15.3497 18.5578 15.5272 18.0427C15.7048 17.5407 15.9506 16.986 16.2647 16.3916C16.5788 15.7972 16.9202 15.1632 17.3162 14.5028C17.7122 13.8424 18.1219 13.1688 18.5453 12.4951C18.9413 11.8744 19.3647 11.2271 19.829 10.5271C20.2933 9.84027 20.7303 9.19306 21.1263 8.58548C21.5224 7.97789 21.8638 7.44956 22.1232 6.97406C22.3964 6.51177 22.5193 6.20797 22.5193 6.04947C22.5193 6.00985 22.5193 5.94381 22.5193 5.83814C22.5193 5.73247 22.4783 5.67964 22.3964 5.65322C22.1232 5.65322 21.7682 5.85135 21.3448 6.23439C20.9078 6.61743 20.4435 7.10614 19.9519 7.70052C19.4466 8.29489 18.9413 8.96852 18.4087 9.69498C17.8761 10.4346 17.3845 11.1611 16.9065 11.8611C16.4286 12.5744 15.9916 13.2216 15.6092 13.816C15.2131 14.4236 14.9127 14.8859 14.6942 15.2161C14.1616 15.9822 13.6017 16.7218 13.0145 17.4087C12.4272 18.1087 11.7717 18.7295 11.0616 19.2578C10.3378 19.7862 9.5321 20.2088 8.63079 20.5126C7.71581 20.8296 6.69159 20.9749 5.5308 20.9749C4.8753 20.9749 4.21979 20.8957 3.56429 20.7239C2.90878 20.5654 2.32156 20.3013 1.78896 19.9579C1.25637 19.6145 0.819364 19.1786 0.491612 18.6502C0.150204 18.1219 -0.0136719 17.5011 -0.0136719 16.7879C-0.0136719 16.0746 0.122891 15.4142 0.409674 14.8198C0.696457 14.2254 1.07883 13.7235 1.57046 13.3009C2.04843 12.8782 2.622 12.548 3.26385 12.3102C3.9057 12.0725 4.57486 11.9536 5.29864 11.9536C5.72199 11.9536 6.13168 12.0196 6.54137 12.1385C6.95106 12.2706 7.31978 12.4555 7.63387 12.6933C7.94797 12.9442 8.20744 13.2348 8.39863 13.5914C8.58982 13.9481 8.68541 14.3443 8.68541 14.7934C8.68541 15.2821 8.57616 15.7048 8.35766 16.0746C8.13916 16.4444 7.85238 16.7482 7.51097 16.986C7.16956 17.2369 6.75987 17.4087 6.32287 17.5275C5.87221 17.6464 5.4352 17.6992 4.98455 17.6992C4.92992 17.6992 4.84798 17.6992 4.76604 17.686C4.67045 17.686 4.57486 17.6728 4.47926 17.6596C4.38367 17.6464 4.30173 17.62 4.21979 17.5936C4.13785 17.5672 4.11054 17.5143 4.11054 17.4615C4.11054 17.4351 4.11054 17.3954 4.11054 17.3426C4.11054 17.2898 4.1242 17.2766 4.15151 17.303C4.30173 17.3558 4.43829 17.3822 4.57486 17.3822C4.71142 17.3822 4.84798 17.3822 4.9982 17.3822C5.38058 17.3822 5.76296 17.3162 6.15899 17.1973C6.55502 17.0784 6.89643 16.8935 7.19687 16.6558C7.51097 16.4312 7.75678 16.1407 7.94797 15.8104C8.13916 15.4802 8.24841 15.1104 8.24841 14.7009C8.24841 14.3047 8.16647 13.9613 7.98894 13.6707C7.81141 13.3801 7.59291 13.1424 7.31978 12.9574C7.04665 12.7725 6.73256 12.6404 6.39115 12.5348C6.04974 12.4423 5.68102 12.4027 5.3123 12.4027C4.69776 12.4027 4.09688 12.5084 3.49601 12.7065C2.89513 12.9178 2.37619 13.1952 1.91187 13.565C1.44756 13.9349 1.07883 14.3839 0.778395 14.8991C0.491612 15.4274 0.355049 15.9954 0.355049 16.6294C0.355049 17.303 0.505269 17.8709 0.805708 18.3464C1.10615 18.8219 1.50218 19.2182 1.98015 19.5088C2.45812 19.8126 3.00438 20.0371 3.60526 20.1692C4.20614 20.3013 4.80701 20.3805 5.40789 20.3805C6.29555 20.3805 7.14225 20.2352 7.96163 19.9447C8.76735 19.6541 9.54576 19.2578 10.2832 18.7427C11.0206 18.2408 11.7171 17.6464 12.3999 16.9728C13.0691 16.2992 13.7109 15.5859 14.3255 14.8198C14.9127 14.0934 15.4726 13.3405 16.0052 12.5744C16.5378 11.8083 17.0431 11.0554 17.5484 10.329C18.04 9.60252 18.518 8.91569 18.9959 8.26848C19.4603 7.62127 19.9246 7.05331 20.3616 6.57781C20.7986 6.10231 21.2492 5.71926 21.6726 5.42868C22.1096 5.15131 22.5329 5.00601 22.9699 5.00601C23.2158 5.00601 23.4069 5.12489 23.5572 5.36264C23.7074 5.60039 23.7893 5.82493 23.7893 6.02306C23.7893 6.16835 23.721 6.39289 23.5981 6.70989C23.4616 7.02689 23.2977 7.38352 23.0792 7.79298C22.8607 8.20244 22.6285 8.63831 22.3554 9.11381C22.0823 9.58931 21.8091 10.0648 21.536 10.5271C21.2629 11.0026 20.9898 11.4517 20.7303 11.8744C20.4708 12.3102 20.2387 12.6801 20.0611 13.0103C19.7607 13.5254 19.4193 14.0802 19.0506 14.6745C18.6682 15.2689 18.3131 15.8633 17.9854 16.4444C17.644 17.0256 17.3708 17.5672 17.1523 18.0691C16.9202 18.571 16.8109 18.9804 16.8109 19.2974C16.8109 19.3239 16.8109 19.3635 16.8109 19.4295C16.8109 19.4956 16.8109 19.5484 16.8246 19.6144C16.8246 19.6805 16.8519 19.7201 16.8656 19.7597C16.8929 19.7994 16.9202 19.8258 16.9748 19.8258C17.2616 19.8258 17.6167 19.588 18.04 19.1257C18.4633 18.6634 18.9277 18.0427 19.4466 17.2898C19.9655 16.5369 20.5118 15.6784 21.099 14.7274C21.6862 13.7764 22.2871 12.8254 22.9017 11.8479C23.4479 10.9762 23.9942 10.1309 24.5541 9.29873C25.1003 8.47981 25.6466 7.74014 26.1519 7.10614C26.6571 6.47214 27.1488 5.97022 27.6267 5.58718C28.1047 5.20414 28.5281 5.00601 28.9104 5.00601C29.1563 5.00601 29.3884 5.08526 29.5933 5.23056C29.8254 5.37585 29.9347 5.56077 29.9347 5.78531ZM20.9351 5.05885C20.9898 5.11168 21.0034 5.19093 20.9761 5.2966C20.9488 5.40227 20.8942 5.42868 20.8396 5.37585C20.225 4.95318 19.5695 4.62297 18.8594 4.38522C18.1493 4.14747 17.4391 4.04181 16.7017 4.04181C16.4695 4.04181 16.2374 4.04181 16.0052 4.0286C15.773 4.01539 15.5409 4.04181 15.3224 4.09464C15.3634 4.30597 15.3907 4.53051 15.4316 4.76826C15.459 5.00601 15.4726 5.23056 15.4726 5.42868C15.4726 5.97022 15.377 6.52497 15.1995 7.10614C15.022 7.68731 14.7488 8.20243 14.4074 8.67794C14.066 9.15344 13.629 9.53648 13.1237 9.84027C12.6184 10.1441 12.0312 10.3026 11.3757 10.3026C10.6792 10.3026 10.133 10.1044 9.75061 9.69498C9.35457 9.29873 9.16338 8.77039 9.16338 8.13639C9.16338 7.42314 9.3136 6.80235 9.64136 6.2476C9.95545 5.70606 10.3651 5.24376 10.8568 4.84751C11.3484 4.45126 11.9083 4.12106 12.5365 3.8701C13.151 3.60593 13.7792 3.42101 14.3938 3.28893C14.2162 2.90589 13.9704 2.58889 13.6427 2.32472C13.3149 2.06055 12.9598 1.86243 12.5775 1.70393C12.1814 1.54543 11.7717 1.43976 11.3484 1.37372C10.9114 1.30768 10.5154 1.26805 10.133 1.26805C9.21801 1.26805 8.39863 1.43976 7.66119 1.79639C6.92374 2.15301 6.30921 2.62851 5.80393 3.2493C5.28499 3.8701 4.90261 4.62297 4.62948 5.48151C4.35635 6.35327 4.21979 7.31748 4.21979 8.36094C4.21979 8.65152 4.15151 8.79681 4.0286 8.81002C3.9057 8.82323 3.83741 8.65152 3.83741 8.32131C3.83741 7.27785 3.97398 6.30043 4.26076 5.40227C4.53389 4.5041 4.95723 3.7116 5.50349 3.03797C6.0634 2.37755 6.74621 1.84922 7.59291 1.46618C8.42594 1.08314 9.42285 0.88501 10.5563 0.88501C11.5396 0.88501 12.3999 1.06993 13.151 1.45297C13.8885 1.83601 14.5576 2.41718 15.1449 3.20968C15.2814 3.18326 15.418 3.17005 15.5409 3.17005C15.6638 3.17005 15.8004 3.17005 15.9369 3.17005C16.8792 3.18326 17.7805 3.36818 18.6545 3.7248C19.5149 4.04181 20.2796 4.5041 20.9351 5.05885ZM14.8717 5.54756C14.8717 5.2966 14.8581 5.05885 14.8444 4.84751C14.8308 4.63618 14.7761 4.38522 14.7079 4.12106C14.2572 4.13426 13.7519 4.25314 13.1647 4.45126C12.5911 4.6626 12.0449 4.95318 11.5396 5.32301C11.0206 5.69285 10.5973 6.12872 10.2422 6.61743C9.88717 7.10614 9.72329 7.66089 9.72329 8.25527C9.72329 8.75719 9.90083 9.14023 10.2559 9.37798C10.611 9.62894 11.0343 9.76102 11.5259 9.76102C12.0858 9.76102 12.5775 9.62894 12.9872 9.36477C13.3968 9.1006 13.7519 8.77039 14.0387 8.36094C14.3118 7.95148 14.5303 7.50239 14.6669 6.98727C14.8034 6.49856 14.8717 6.00985 14.8717 5.54756Z" fill="#333333"/>
<path d="M34.6871 19.3502C34.6325 19.4955 34.6189 19.6408 34.6189 19.7729C34.6189 19.905 34.6462 20.0371 34.7145 20.1295C34.7691 20.2352 34.892 20.2748 35.0559 20.2748C35.2607 20.2748 35.5065 20.1692 35.7797 19.971C36.0528 19.7729 36.3942 19.5087 36.7902 19.1521C36.8585 19.0993 36.9131 19.1257 36.9678 19.2182C37.0224 19.3238 36.9951 19.4163 36.9131 19.5087C36.7766 19.6672 36.6127 19.8257 36.4352 19.9975C36.2576 20.1692 36.0528 20.3145 35.807 20.4333C35.5612 20.5654 35.288 20.6711 34.9876 20.7503C34.6735 20.8428 34.3321 20.8824 33.936 20.8824C33.6083 20.8824 33.3625 20.8164 33.1986 20.6975C33.0347 20.5786 32.9255 20.4201 32.8845 20.2352C32.8299 20.0503 32.8299 19.8522 32.8572 19.6276C32.8845 19.4031 32.9255 19.205 32.9801 19.02C32.7753 19.2182 32.5431 19.4295 32.2973 19.654C32.0378 19.8786 31.7783 20.0899 31.4916 20.2748C31.2048 20.473 30.9043 20.6315 30.6039 20.7635C30.3035 20.8956 30.003 20.9617 29.7026 20.9617C29.088 20.9617 28.6374 20.8164 28.3643 20.5126C28.0775 20.2088 27.9409 19.7333 27.9409 19.0597C27.9409 18.4917 28.0092 17.8973 28.1594 17.2765C28.296 16.6557 28.5145 16.0482 28.7876 15.4406C29.0607 14.8462 29.3885 14.265 29.7982 13.7235C30.1942 13.1819 30.6312 12.6932 31.1365 12.2838C31.6281 11.8743 32.1607 11.5441 32.7479 11.3064C33.3352 11.0686 33.9497 10.9365 34.6052 10.9365C34.9603 10.9365 35.2607 11.0554 35.5202 11.2799C35.766 11.5177 35.9299 11.8083 35.9982 12.1781L36.4352 11.2271H38.2515L34.8237 18.9804C34.7827 19.0861 34.7418 19.2182 34.6871 19.3502ZM35.5748 12.4555C35.5065 12.3102 35.3973 12.1649 35.2607 12.0328C35.1242 11.9139 34.9466 11.8083 34.7554 11.729C34.5642 11.6498 34.3731 11.6101 34.1955 11.6101C33.7585 11.6101 33.3488 11.7554 32.9528 12.0328C32.5568 12.3234 32.2017 12.68 31.8603 13.1291C31.5189 13.5782 31.2048 14.0933 30.9317 14.6481C30.6585 15.216 30.4264 15.784 30.2215 16.3519C30.0167 16.9199 29.8801 17.4614 29.7709 17.9634C29.6616 18.4785 29.6206 18.888 29.6206 19.2182C29.6206 19.5352 29.7299 19.7861 29.9347 19.971C30.1396 20.156 30.3581 20.2484 30.5902 20.2484C30.7405 20.2484 30.959 20.156 31.2458 19.9578C31.5325 19.7729 31.8193 19.5484 32.1198 19.2974C32.4065 19.0597 32.6797 18.8087 32.9118 18.5577C33.144 18.3068 33.2942 18.1219 33.3488 18.003L35.5612 12.8914C35.6431 12.7593 35.6431 12.6008 35.5748 12.4555Z" fill="#333333"/>
<path d="M48.0976 12.6008C48.0976 12.8254 48.043 13.0367 47.9474 13.2348C47.8518 13.433 47.7016 13.6047 47.5377 13.75C47.3602 13.8952 47.169 14.0141 46.9505 14.0934C46.732 14.1858 46.4998 14.2255 46.2813 14.2255C46.1994 14.2255 46.1038 14.2122 45.9809 14.1726C45.858 14.1462 45.7624 14.0934 45.6532 14.0405C45.5439 13.9877 45.462 13.9085 45.38 13.8292C45.2981 13.75 45.2708 13.6707 45.2708 13.565C45.2708 13.4594 45.3117 13.3933 45.4073 13.3537C45.5029 13.3141 45.6122 13.2612 45.7351 13.1952C45.858 13.1292 45.9673 13.0367 46.0628 12.9046C46.1584 12.7857 46.1994 12.5744 46.1994 12.297C46.1994 11.9668 46.0628 11.7951 45.7897 11.7951C45.5712 11.7951 45.3391 11.8479 45.1069 11.9404C44.8747 12.0461 44.6426 12.1649 44.4241 12.3102C44.2056 12.4687 44.0007 12.6405 43.8095 12.8254C43.6184 13.0235 43.4408 13.2084 43.2906 13.4065L41.1329 18.3597C41.0919 18.4653 41.0373 18.5842 40.9827 18.7163C40.9144 18.8484 40.8598 18.9805 40.8188 19.1125C40.7642 19.2446 40.7232 19.3635 40.6822 19.4692C40.6413 19.5748 40.614 19.6409 40.614 19.6805C40.614 19.8126 40.6413 19.9447 40.6822 20.0635C40.7232 20.1956 40.8461 20.2485 41.0373 20.2485C41.1602 20.2485 41.3104 20.2088 41.4607 20.1164C41.6245 20.0371 41.7884 19.9315 41.9523 19.8126C42.1162 19.6937 42.2664 19.5748 42.4166 19.4428C42.5532 19.3239 42.6761 19.2182 42.7717 19.139C42.9219 19.0201 43.0038 19.0333 43.0448 19.1786C43.0721 19.3239 42.9902 19.4824 42.8126 19.6409C42.4712 19.9579 42.1025 20.2353 41.7201 20.473C41.3378 20.7108 40.8734 20.8296 40.3545 20.8296C39.9721 20.8296 39.6307 20.7372 39.3166 20.5523C39.0025 20.3673 38.8523 20.0768 38.8523 19.6805C38.8523 19.5484 38.8796 19.4031 38.9206 19.2314C38.9615 19.0729 39.0298 18.9012 39.0981 18.7163C39.1664 18.5314 39.2347 18.3597 39.3166 18.188C39.3849 18.0163 39.4532 17.8578 39.5078 17.7125L41.6792 12.8122C41.8703 12.3499 41.9523 12.0329 41.9386 11.8612C41.925 11.6894 41.8157 11.597 41.6382 11.597C41.447 11.597 41.2695 11.6498 41.1056 11.7423C40.9417 11.8479 40.7778 11.9536 40.6413 12.0989C40.4911 12.231 40.3545 12.3895 40.2179 12.548C40.0814 12.7065 39.9721 12.8386 39.8629 12.9442C39.7536 13.0499 39.6444 13.0763 39.5488 13.0103C39.4532 12.9442 39.4395 12.865 39.5215 12.7593C39.699 12.548 39.8902 12.3367 40.095 12.1121C40.2999 11.9008 40.5184 11.7027 40.7369 11.5309C40.969 11.3592 41.2012 11.2139 41.447 11.1083C41.6928 11.0026 41.9523 10.9366 42.2254 10.9366C42.7034 10.9366 43.0721 11.0951 43.3179 11.3989C43.5637 11.7159 43.673 12.0593 43.6457 12.4423C43.7549 12.3235 43.9051 12.1782 44.0963 12.0065C44.2875 11.8347 44.4924 11.663 44.7382 11.5045C44.9703 11.3328 45.2162 11.2007 45.4893 11.0819C45.7624 10.9762 46.0355 10.9102 46.3223 10.9102C46.5681 10.9102 46.8003 10.9366 47.0051 10.9762C47.21 11.029 47.4012 11.1083 47.5514 11.2404C47.7016 11.3724 47.8382 11.5442 47.9338 11.7555C48.043 11.9932 48.0976 12.2706 48.0976 12.6008Z" fill="#333333"/>
<path d="M49.9548 18.7559C49.9002 18.8879 49.8319 19.0332 49.791 19.1521C49.7363 19.2842 49.6954 19.3899 49.6544 19.4955C49.6134 19.6012 49.5861 19.6672 49.5861 19.7069C49.5861 19.839 49.6134 19.971 49.6544 20.1031C49.6954 20.2352 49.8183 20.3012 50.0095 20.3012C50.146 20.3012 50.2963 20.2616 50.4601 20.1692C50.624 20.0899 50.7879 19.9842 50.9381 19.8522C51.0883 19.7333 51.2522 19.6012 51.3888 19.4823C51.5253 19.3635 51.6482 19.2578 51.7438 19.1785C51.894 19.0597 51.976 19.0729 52.017 19.2182C52.0443 19.3635 51.9623 19.522 51.7848 19.6805C51.4434 19.9975 51.0747 20.2748 50.6923 20.5126C50.2963 20.7503 49.8456 20.8692 49.3267 20.8692C48.9443 20.8692 48.6029 20.7767 48.2888 20.5918C47.9747 20.4069 47.8245 20.1163 47.8245 19.7201C47.8245 19.588 47.8518 19.4427 47.8927 19.271C47.9337 19.1125 48.002 18.9408 48.0703 18.7559C48.1386 18.5709 48.2068 18.3992 48.2888 18.2275C48.3571 18.0558 48.4253 17.8973 48.48 17.752L50.6104 12.8121C50.8015 12.3498 50.8835 12.0328 50.8698 11.8611C50.8562 11.6894 50.7469 11.5969 50.5694 11.5969C50.3782 11.5969 50.2007 11.6498 50.0368 11.7422C49.8729 11.8479 49.709 11.9536 49.5588 12.0989C49.4086 12.2309 49.272 12.3894 49.1355 12.5479C48.9989 12.7064 48.8897 12.8385 48.7804 12.9442C48.6712 13.0499 48.5619 13.0763 48.4663 13.0102C48.3707 12.9442 48.3571 12.8649 48.439 12.7593C48.6165 12.5479 48.8077 12.3366 49.0126 12.1121C49.2174 11.9007 49.4359 11.7026 49.6544 11.5309C49.8729 11.3592 50.1187 11.2139 50.3645 11.1082C50.6104 11.0026 50.8698 10.9365 51.143 10.9365C51.4434 10.9365 51.6892 11.0026 51.8941 11.1346C52.0989 11.2667 52.2491 11.4384 52.3584 11.6366C52.4676 11.8479 52.5086 12.0724 52.5222 12.3102C52.5222 12.5611 52.4813 12.7857 52.3857 13.0102L50.0641 18.3596C50.0641 18.4917 50.0095 18.6106 49.9548 18.7559ZM54.6663 7.44952C54.6663 7.75331 54.557 8.01748 54.3249 8.22881C54.0927 8.44014 53.8196 8.55902 53.4918 8.55902C53.1777 8.55902 52.9046 8.45335 52.6861 8.22881C52.454 8.01748 52.3447 7.75331 52.3447 7.44952C52.3447 7.13252 52.454 6.86835 52.6861 6.64381C52.9046 6.43247 53.1777 6.3136 53.4918 6.3136C53.8196 6.3136 54.0927 6.41927 54.3249 6.64381C54.557 6.86835 54.6663 7.13252 54.6663 7.44952Z" fill="#333333"/>
<path d="M79.7394 6.52493C78.9337 6.94759 78.2508 7.46272 77.7046 8.08351C77.1583 8.7043 76.653 9.37793 76.2297 10.1044C75.7927 10.8441 75.3967 11.6101 75.0143 12.4159C74.6319 13.2216 74.2359 14.0405 73.8125 14.8462C73.3755 15.6651 72.8839 16.4708 72.3376 17.2501C71.7777 18.0426 71.1086 18.7691 70.3165 19.4559C70.4258 20.288 70.3302 21.0541 70.0434 21.7542C69.7429 22.4542 69.3196 23.0618 68.7733 23.5637C68.2271 24.0656 67.5716 24.4619 66.8205 24.7525C66.0694 25.0298 65.291 25.1751 64.5126 25.1751C63.8161 25.1751 63.1196 25.0562 62.4231 24.8185C61.7267 24.5807 61.1668 24.1977 60.7434 23.6958C60.6888 23.6297 60.6888 23.5373 60.7298 23.4316C60.7707 23.3259 60.839 23.2995 60.921 23.3656C61.0575 23.4844 61.2214 23.6297 61.4262 23.7882C61.6174 23.9467 61.8632 24.092 62.1364 24.2505C62.4095 24.3958 62.7236 24.5147 63.0923 24.6204C63.4474 24.726 63.8707 24.7789 64.3487 24.7789C65.0588 24.7789 65.7553 24.6468 66.4245 24.3958C67.1073 24.1449 67.6945 23.8014 68.1998 23.3656C68.7051 22.9297 69.1011 22.4146 69.4015 21.8334C69.6883 21.239 69.8249 20.6182 69.7839 19.9446C68.9918 20.4069 68.1315 20.7635 67.1892 21.0277C66.2469 21.2787 65.3183 21.4107 64.376 21.4107C63.5839 21.4107 62.7782 21.3183 61.9725 21.1466C61.1531 20.9749 60.4293 20.6843 59.7738 20.288C59.1183 19.8918 58.5857 19.3767 58.1624 18.7559C57.739 18.1351 57.5342 17.3558 57.5342 16.4444C57.5342 15.7179 57.6981 15.0443 58.0395 14.4367C58.3672 13.8291 58.8179 13.2876 59.3641 12.8385C59.9104 12.3894 60.5249 12.046 61.2214 11.7951C61.9042 11.5573 62.6143 11.4252 63.3381 11.4252C64.1029 11.4252 64.7311 11.5309 65.2364 11.729C65.728 11.9271 66.1377 12.1781 66.4381 12.4687C66.7385 12.7725 66.9571 13.0895 67.08 13.4329C67.2029 13.7763 67.2711 14.0933 67.2848 14.3839C67.6672 14.5556 68.0222 14.7669 68.35 15.0311C68.6777 15.2953 68.9645 15.5726 69.1967 15.8632C69.4288 16.167 69.6337 16.4708 69.7839 16.7878C69.9341 17.118 70.0297 17.4218 70.0707 17.7256C70.4394 17.2765 70.8354 16.6821 71.2588 15.9557C71.6821 15.216 72.1328 14.4367 72.5971 13.5914C73.0751 12.7461 73.5667 11.9007 74.0993 11.0422C74.6319 10.1836 75.1918 9.40435 75.779 8.71751C76.3663 8.01747 76.9808 7.46272 77.6226 7.02684C78.2645 6.59097 78.9337 6.37963 79.6438 6.37963C79.794 6.37963 79.8896 6.37963 79.9306 6.39284C79.9442 6.39284 79.8896 6.44568 79.7394 6.52493ZM69.5654 18.1615C69.4971 17.8313 69.3742 17.5011 69.2103 17.1576C69.0328 16.8142 68.8416 16.4972 68.6095 16.2199C68.391 15.9425 68.1452 15.6915 67.8857 15.4802C67.6262 15.2689 67.3941 15.1236 67.1756 15.0443C67.1346 15.4538 67.0117 15.8236 66.8341 16.167C66.643 16.4972 66.3971 16.7878 66.0967 17.0256C65.7963 17.2633 65.4549 17.4482 65.0861 17.5803C64.7038 17.7124 64.3214 17.7784 63.9117 17.7784C63.7068 17.7784 63.4883 17.752 63.2835 17.686C63.065 17.6199 62.8602 17.5407 62.6826 17.4086C62.5051 17.2897 62.3549 17.118 62.2456 16.9067C62.1227 16.7086 62.0681 16.4576 62.0681 16.167C62.0681 15.8368 62.15 15.5462 62.3276 15.2689C62.4914 15.0047 62.7236 14.7801 62.9967 14.582C63.2698 14.3971 63.5703 14.2386 63.9117 14.1461C64.2394 14.0405 64.5672 14.0009 64.8813 14.0009C65.3456 14.0009 65.8099 14.0537 66.2742 14.1594C66.2469 13.948 66.1786 13.7235 66.0557 13.4593C65.9328 13.2084 65.7553 12.9838 65.5095 12.7593C65.25 12.5479 64.9223 12.3762 64.5126 12.2309C64.0892 12.0856 63.5703 12.0064 62.9421 12.0064C62.3002 12.0064 61.6857 12.1121 61.1121 12.3234C60.5249 12.5347 60.0196 12.8385 59.569 13.2216C59.1183 13.6178 58.7769 14.0801 58.5174 14.6216C58.258 15.1632 58.1214 15.7576 58.1214 16.4048C58.1214 17.1444 58.2853 17.7916 58.6267 18.3464C58.9544 18.9012 59.3914 19.3634 59.9377 19.7333C60.4703 20.1031 61.0848 20.3805 61.754 20.5654C62.4231 20.7503 63.0923 20.8428 63.7751 20.8428C64.1302 20.8428 64.5808 20.7767 65.1408 20.6182C65.7007 20.4729 66.2606 20.2748 66.8341 20.0371C67.4077 19.7993 67.9403 19.5087 68.4592 19.1785C68.9372 18.8747 69.3196 18.5181 69.5654 18.1615ZM83.3037 8.55901C83.3037 9.04772 83.1944 9.43076 82.9896 9.70814C82.7711 9.98551 82.5116 10.1968 82.2112 10.3553C81.8971 10.5138 81.5693 10.6195 81.2006 10.6856C80.8319 10.7516 80.4905 10.8176 80.19 10.8573C79.8759 10.9101 79.6165 10.9761 79.4116 11.0686C79.1931 11.1611 79.0975 11.2931 79.0975 11.4781C79.0975 11.6366 79.2068 11.8083 79.4389 11.98C79.6711 12.1649 79.9169 12.3894 80.19 12.68C80.4632 12.9706 80.7226 13.3404 80.9548 13.7763C81.1733 14.2122 81.2962 14.7669 81.2962 15.4141C81.2962 16.0349 81.1733 16.6689 80.9275 17.3162C80.6817 17.9634 80.3403 18.5445 79.9169 19.0729C79.4799 19.6012 78.9746 20.0239 78.3737 20.3673C77.7729 20.6975 77.131 20.8692 76.4209 20.8692C76.0931 20.8692 75.7927 20.8428 75.4923 20.7899C75.2055 20.7371 74.9597 20.6447 74.7412 20.4994C74.5227 20.3673 74.3588 20.1692 74.2359 19.9314C74.113 19.6937 74.0447 19.4031 74.0447 19.0332C74.0447 18.6106 74.1266 18.2143 74.2768 17.8577C74.4271 17.4879 74.6456 17.1709 74.9187 16.8803C75.1918 16.5897 75.5059 16.3519 75.8746 16.1538C76.2434 15.9689 76.6257 15.8236 77.0354 15.7444C77.1856 15.7179 77.2812 15.7311 77.3222 15.7708C77.3632 15.8236 77.3085 15.8632 77.1583 15.9029C76.3389 16.0878 75.6834 16.4576 75.1918 16.9991C74.7002 17.5539 74.4544 18.2407 74.4544 19.0729C74.4544 19.3238 74.5227 19.5352 74.6319 19.7201C74.7548 19.8918 74.905 20.0503 75.1099 20.1559C75.3011 20.2748 75.5059 20.3541 75.7381 20.4069C75.9566 20.4597 76.1751 20.4862 76.3799 20.4862C76.7896 20.4862 77.1993 20.3409 77.5953 20.0371C77.9914 19.7333 78.3601 19.3634 78.6605 18.9012C78.9746 18.4521 79.2204 17.9502 79.4116 17.4086C79.6028 16.8671 79.6984 16.3519 79.6984 15.8368C79.6984 15.2556 79.5892 14.7669 79.357 14.3707C79.1248 13.9744 78.879 13.6442 78.6196 13.3536C78.3601 13.0763 78.1006 12.8517 77.8821 12.6536C77.65 12.4687 77.5407 12.297 77.5407 12.1385C77.5407 11.729 77.65 11.4384 77.8548 11.2403C78.0596 11.0554 78.3328 10.9233 78.6605 10.8441C78.9746 10.7648 79.3297 10.712 79.6984 10.6856C80.0671 10.6591 80.4085 10.5931 80.7363 10.4742C81.0504 10.3686 81.3235 10.1836 81.542 9.94589C81.7469 9.70814 81.8561 9.3251 81.8561 8.80997C81.8561 8.57222 81.7742 8.32126 81.624 8.0703C81.4601 7.80614 81.2825 7.55518 81.0777 7.29101C80.8592 7.02684 80.6544 6.78909 80.4359 6.55134C80.2173 6.3268 80.0398 6.11547 79.9032 5.93055C79.4799 6.07584 79.0429 6.18151 78.6059 6.24755C78.1552 6.31359 77.7046 6.35322 77.2403 6.35322C76.5438 6.35322 75.861 6.28718 75.1918 6.1683C74.5227 6.04943 73.8535 5.87772 73.2116 5.66638C73.0068 6.12868 72.7473 6.57776 72.4469 7.02684C72.1465 7.47593 71.7914 7.85897 71.3817 8.20239C70.972 8.5458 70.5077 8.82318 69.9888 9.03451C69.4698 9.24585 68.8962 9.35151 68.2681 9.35151C67.954 9.35151 67.6399 9.29868 67.3394 9.1798C67.039 9.07414 66.7659 8.91564 66.5474 8.71751C66.3152 8.51939 66.124 8.28164 65.9875 8.01747C65.8372 7.7533 65.769 7.44951 65.769 7.13251C65.769 6.60418 65.9328 6.12867 66.2742 5.6928C66.602 5.27013 67.0253 4.9003 67.517 4.60971C68.0086 4.31913 68.5412 4.09459 69.1011 3.93609C69.661 3.77759 70.1799 3.69834 70.6443 3.69834C70.9584 3.69834 71.3134 3.75117 71.7094 3.84363C72.1055 3.9493 72.4469 4.02855 72.7473 4.09459C72.7064 3.36813 72.4879 2.77375 72.0918 2.29825C71.6958 1.82275 71.2315 1.43971 70.7125 1.16234C70.1799 0.88496 69.6473 0.686834 69.1148 0.567959C68.5685 0.462292 68.1452 0.396251 67.8174 0.396251C66.9844 0.396251 66.165 0.541542 65.3729 0.818918C64.5809 1.1095 63.8707 1.49254 63.2562 1.99446C62.628 2.49638 62.1364 3.07755 61.754 3.75117C61.3716 4.4248 61.1941 5.15126 61.1941 5.93055C61.1941 6.07584 61.1941 6.22113 61.2077 6.37963C61.2077 6.53813 61.235 6.68343 61.2624 6.82872C61.317 7.1193 61.2897 7.25139 61.1941 7.22497C61.0848 7.19855 61.0029 7.07968 60.9346 6.86834C60.88 6.70984 60.839 6.55134 60.798 6.37963C60.7571 6.22113 60.7434 6.04943 60.7434 5.87772C60.7434 4.95313 60.9619 4.13421 61.3989 3.39455C61.8359 2.66809 62.3958 2.0605 63.0923 1.54538C63.7751 1.04346 64.5535 0.660418 65.3866 0.383042C66.2333 0.132084 67.0526 0 67.8584 0C68.9236 0 69.8522 0.171709 70.6443 0.515126C71.4363 0.858543 72.1191 1.46613 72.6927 2.33788C72.9249 2.6813 73.0887 3.02471 73.1843 3.38134C73.2799 3.73796 73.3072 4.04176 73.2663 4.30592C73.6077 4.49084 73.9901 4.67576 74.4271 4.83426C74.8504 5.00597 75.3011 5.16447 75.7654 5.29655C76.2297 5.44184 76.694 5.54751 77.1447 5.62676C77.5953 5.70601 78.0187 5.74563 78.4011 5.74563C78.7015 5.74563 78.9883 5.70601 79.2887 5.63997C79.5755 5.57392 79.835 5.48147 80.0808 5.38901C80.3266 5.29655 80.5451 5.2173 80.7499 5.13805C80.9411 5.07201 81.105 5.03238 81.2143 5.03238C81.2416 5.03238 81.2689 5.03238 81.3099 5.01917C81.3372 5.01917 81.3645 5.03238 81.3781 5.07201C81.4737 5.36259 81.6239 5.63997 81.8424 5.91734C82.0473 6.19472 82.2658 6.47209 82.4843 6.76268C82.7028 7.05326 82.894 7.34384 83.0579 7.63443C83.2217 7.92501 83.3037 8.24201 83.3037 8.55901ZM66.2059 14.7009C66.0148 14.6349 65.8236 14.5952 65.6324 14.5688C65.4412 14.5424 65.2637 14.5292 65.1134 14.5292C64.813 14.5292 64.5126 14.5556 64.2258 14.6216C63.939 14.6877 63.6795 14.7801 63.461 14.9122C63.2289 15.0443 63.0513 15.216 62.9148 15.4406C62.7646 15.6519 62.6963 15.9293 62.6963 16.2595C62.6963 16.6425 62.8055 16.9067 63.0104 17.052C63.2152 17.1973 63.502 17.2765 63.8571 17.2765C64.1848 17.2765 64.4989 17.1973 64.7857 17.052C65.0725 16.9067 65.3183 16.7086 65.5231 16.4576C65.728 16.2199 65.8919 15.9425 66.0148 15.6387C66.1377 15.3085 66.2059 15.0047 66.2059 14.7009ZM72.5698 5.49467C72.3786 5.41542 72.1601 5.33617 71.928 5.23051C71.6958 5.13805 71.45 5.04559 71.1769 4.97955C70.9037 4.9003 70.6306 4.83426 70.3438 4.78142C70.057 4.72859 69.7703 4.70217 69.4835 4.70217C69.1284 4.70217 68.7597 4.75501 68.3773 4.88709C67.9949 5.00597 67.6535 5.17767 67.3394 5.38901C67.0253 5.60034 66.7795 5.87772 66.5883 6.18151C66.3835 6.49851 66.2879 6.84193 66.2879 7.23818C66.2879 7.84576 66.4927 8.29485 66.9024 8.57222C67.3121 8.8496 67.8037 8.98168 68.3773 8.98168C68.8007 8.98168 69.2513 8.87601 69.7156 8.67789C70.1936 8.47976 70.6306 8.20239 71.0403 7.87218C71.45 7.54197 71.7914 7.17213 72.0782 6.74947C72.3786 6.3268 72.5288 5.91734 72.5698 5.49467Z" fill="#333333"/>
<path d="M89.6129 19.3502C89.5583 19.4955 89.5447 19.6408 89.5447 19.7729C89.5447 19.905 89.572 20.0371 89.6402 20.1295C89.6949 20.2352 89.8178 20.2748 89.9817 20.2748C90.1865 20.2748 90.4323 20.1692 90.7054 19.971C90.9786 19.7729 91.32 19.5087 91.716 19.1521C91.7843 19.0993 91.8389 19.1257 91.8935 19.2182C91.9482 19.3238 91.9209 19.4163 91.8389 19.5087C91.7024 19.6672 91.5385 19.8257 91.3609 19.9975C91.1834 20.1692 90.9786 20.3145 90.7328 20.4333C90.4869 20.5654 90.2138 20.6711 89.9134 20.7503C89.5993 20.8428 89.2579 20.8824 88.8618 20.8824C88.5341 20.8824 88.2883 20.8164 88.1244 20.6975C87.9605 20.5786 87.8513 20.4201 87.8103 20.2352C87.7557 20.0503 87.7557 19.8522 87.783 19.6276C87.8103 19.4031 87.8513 19.205 87.9059 19.02C87.701 19.2182 87.4689 19.4295 87.2231 19.654C86.9636 19.8786 86.7041 20.0899 86.4173 20.2748C86.1306 20.473 85.8301 20.6315 85.5297 20.7635C85.2292 20.8956 84.9288 20.9617 84.6284 20.9617C84.0138 20.9617 83.5632 20.8164 83.2901 20.5126C83.0033 20.2088 82.8667 19.7333 82.8667 19.0597C82.8667 18.4917 82.935 17.8973 83.0852 17.2765C83.2218 16.6557 83.4403 16.0482 83.7134 15.4406C83.9865 14.8462 84.3143 14.265 84.724 13.7235C85.12 13.1819 85.557 12.6932 86.0623 12.2838C86.5539 11.8743 87.0865 11.5441 87.6737 11.3064C88.261 11.0686 88.8755 10.9365 89.531 10.9365C89.8861 10.9365 90.1865 11.0554 90.446 11.2799C90.6918 11.5177 90.8557 11.8083 90.9239 12.1781L91.3609 11.2271H93.1363L89.7358 18.954C89.6949 19.0861 89.6539 19.2182 89.6129 19.3502ZM90.5006 12.4555C90.4323 12.3102 90.3231 12.1649 90.1865 12.0328C90.0499 11.9139 89.8724 11.8083 89.6812 11.729C89.49 11.6498 89.2988 11.6101 89.1213 11.6101C88.6843 11.6101 88.2746 11.7554 87.8786 12.0328C87.4825 12.3234 87.1275 12.68 86.7861 13.1291C86.4447 13.5782 86.1306 14.0933 85.8574 14.6481C85.5843 15.216 85.3522 15.784 85.1473 16.3519C84.9425 16.9199 84.8059 17.4614 84.6967 17.9634C84.5874 18.4785 84.5464 18.888 84.5464 19.2182C84.5464 19.5352 84.6557 19.7861 84.8605 19.971C85.0654 20.156 85.2839 20.2484 85.516 20.2484C85.6663 20.2484 85.8848 20.156 86.1715 19.9578C86.4583 19.7729 86.7451 19.5484 87.0455 19.2974C87.3323 19.0597 87.6055 18.8087 87.8376 18.5577C88.0698 18.3068 88.22 18.1219 88.2746 18.003L90.4869 12.8914C90.5689 12.7593 90.5689 12.6008 90.5006 12.4555Z" fill="#333333"/>
<path d="M104.84 5.81164C104.84 6.03618 104.771 6.24752 104.621 6.45885C104.471 6.67018 104.28 6.76264 104.02 6.76264C103.761 6.76264 103.556 6.6966 103.406 6.55131C103.256 6.41923 103.119 6.26073 103.01 6.10223C102.887 5.94372 102.778 5.79843 102.668 5.65314C102.545 5.52106 102.409 5.44181 102.245 5.44181C102.054 5.44181 101.849 5.52106 101.63 5.67956C101.412 5.83806 101.193 6.04939 100.961 6.32677C100.743 6.60414 100.511 6.92114 100.306 7.27777C100.087 7.6476 99.8961 8.03064 99.7186 8.4401L98.1071 12.1781C98.5988 11.7818 99.0767 11.478 99.5274 11.2667C99.978 11.0554 100.552 10.9497 101.234 10.9497C101.576 10.9497 101.863 11.0289 102.108 11.1742C102.341 11.3195 102.545 11.5044 102.696 11.7422C102.846 11.9799 102.969 12.2309 103.037 12.5215C103.105 12.8121 103.146 13.1026 103.146 13.3932C103.146 14.1989 102.982 15.0443 102.655 15.916C102.327 16.801 101.876 17.5935 101.289 18.3199C100.702 19.0464 100.033 19.6408 99.2543 20.1295C98.4759 20.605 97.6428 20.8427 96.7278 20.8427C96.3045 20.8427 95.9085 20.8031 95.5671 20.7239C95.212 20.6446 94.8979 20.5125 94.6384 20.3276C94.379 20.1427 94.1605 19.9049 94.0102 19.6012C93.86 19.2974 93.7781 18.9275 93.7781 18.4917C93.7781 18.3067 93.8054 18.069 93.8873 17.7784C93.9556 17.4878 94.0649 17.1708 94.2151 16.8142L97.2878 9.68169C97.5472 9.08731 97.834 8.50614 98.1618 7.95139C98.4759 7.39664 98.8582 6.89473 99.3089 6.45885C99.7459 6.02298 100.265 5.67956 100.852 5.41539C101.439 5.16443 102.122 5.03235 102.928 5.03235C103.146 5.03235 103.365 5.04556 103.597 5.05877C103.815 5.07197 104.02 5.1116 104.212 5.16443C104.389 5.21727 104.539 5.29652 104.662 5.40218C104.785 5.49464 104.84 5.63993 104.84 5.81164ZM101.234 13.38C101.234 13.1555 101.234 12.9441 101.221 12.7196C101.207 12.5083 101.18 12.3234 101.125 12.1516C101.071 11.9931 100.989 11.8479 100.852 11.7554C100.715 11.6629 100.552 11.6101 100.319 11.6101C100.156 11.6101 99.9371 11.6761 99.6503 11.7818C99.3635 11.9007 99.0904 12.046 98.8173 12.2309C98.5305 12.4158 98.2847 12.6007 98.0662 12.7856C97.834 12.9838 97.6974 13.1423 97.6292 13.2744L95.8675 17.3293C95.7173 17.6463 95.6217 17.9633 95.5944 18.2803C95.5534 18.5973 95.5397 18.8351 95.5397 18.9804C95.5397 19.1653 95.5944 19.3238 95.7173 19.4691C95.8265 19.6012 95.9767 19.7332 96.1406 19.8257C96.3045 19.9314 96.4957 19.9974 96.6869 20.0502C96.8781 20.1031 97.0556 20.1295 97.2195 20.1295C97.6019 20.1295 97.9569 20.0106 98.312 19.7464C98.6534 19.4955 98.9675 19.1785 99.2679 18.7822C99.5684 18.386 99.8415 17.9369 100.074 17.435C100.306 16.9331 100.511 16.4312 100.688 15.9292C100.866 15.4273 100.989 14.9518 101.084 14.5027C101.18 14.0537 101.234 13.6838 101.234 13.38Z" fill="#333333"/>
<path d="M115 12.6007C115 13.3668 114.768 14.1065 114.317 14.8197C113.853 15.533 113.279 16.2198 112.596 16.867C111.9 17.5142 111.162 18.1482 110.37 18.7426C109.565 19.337 108.827 19.8917 108.131 20.3936C107.434 20.8956 106.861 21.3711 106.41 21.7937C105.946 22.2164 105.727 22.5862 105.727 22.9164C105.727 23.1146 105.755 23.2599 105.823 23.3523C105.877 23.4448 105.959 23.5108 106.055 23.5372C106.151 23.5636 106.26 23.5768 106.396 23.5636C106.519 23.5504 106.656 23.5504 106.779 23.5504C106.874 23.5504 106.929 23.5901 106.956 23.6561C106.984 23.7221 106.997 23.8014 106.997 23.8674C106.997 23.9731 106.943 24.0788 106.847 24.1844C106.738 24.2901 106.629 24.3826 106.492 24.475C106.355 24.5543 106.219 24.6335 106.069 24.6864C105.932 24.7392 105.809 24.7656 105.714 24.7656C105.563 24.7656 105.413 24.7392 105.263 24.6864C105.113 24.6335 104.976 24.5543 104.84 24.4618C104.703 24.3694 104.607 24.2637 104.525 24.1316C104.444 23.9995 104.403 23.8674 104.403 23.7089C104.403 23.2202 104.553 22.7579 104.881 22.3353C105.195 21.8994 105.536 21.4767 105.932 21.0408C106.314 20.605 106.656 20.1559 106.97 19.6804C107.284 19.2181 107.448 18.6898 107.448 18.1218C107.448 17.9105 107.434 17.6331 107.421 17.3029C107.393 16.9727 107.38 16.6425 107.352 16.3123C107.325 15.9953 107.311 15.6915 107.298 15.4273C107.284 15.1631 107.27 14.9914 107.27 14.9122C107.27 14.4631 107.298 14.0933 107.352 13.8159C107.407 13.5385 107.489 13.2875 107.598 13.0894C107.707 12.8913 107.844 12.7196 108.022 12.5611C108.185 12.4158 108.39 12.2309 108.622 12.0328C108.39 12.1252 108.185 12.1648 108.035 12.1516C107.871 12.1384 107.721 12.112 107.598 12.0592C107.462 12.0195 107.339 11.9535 107.229 11.9007C107.107 11.8346 106.97 11.8082 106.806 11.8082C106.478 11.8082 106.192 11.9271 105.946 12.1516C105.7 12.3762 105.454 12.6007 105.222 12.8517C105.154 12.9177 105.072 12.9309 104.99 12.8649C104.894 12.812 104.908 12.7196 105.003 12.5611C105.154 12.3498 105.304 12.1384 105.454 11.9139C105.604 11.7025 105.768 11.5044 105.959 11.3195C106.151 11.1478 106.355 10.9893 106.588 10.8704C106.82 10.7515 107.079 10.6987 107.366 10.6987C107.694 10.6987 108.008 10.7515 108.322 10.8704C108.636 10.9893 108.936 11.0421 109.251 11.0421C109.442 11.0421 109.619 10.9761 109.783 10.844C109.947 10.7119 110.097 10.6459 110.234 10.6459C110.302 10.6459 110.343 10.6855 110.37 10.7515C110.398 10.8308 110.398 10.8968 110.398 10.9629C110.398 11.0553 110.329 11.1874 110.207 11.3723C110.084 11.5573 109.947 11.7818 109.81 12.0592C109.674 12.3365 109.537 12.6668 109.414 13.0498C109.292 13.4328 109.223 13.8687 109.223 14.3574C109.223 14.7537 109.237 15.1631 109.278 15.5858C109.305 16.0085 109.333 16.4311 109.333 16.8406C109.333 17.3161 109.278 17.8048 109.196 18.2935C109.1 18.7822 108.896 19.2181 108.581 19.6011C109.005 19.2709 109.483 18.8747 110.043 18.4256C110.589 17.9765 111.108 17.4746 111.599 16.933C112.091 16.4047 112.501 15.8368 112.842 15.2424C113.17 14.648 113.347 14.0404 113.347 13.4196C113.347 13.063 113.32 12.8253 113.279 12.6932C113.225 12.5611 113.143 12.495 113.006 12.495C112.91 12.495 112.801 12.5347 112.692 12.6007C112.569 12.6668 112.419 12.7064 112.214 12.7064C112.187 12.7064 112.118 12.68 111.996 12.6403C111.873 12.6007 111.818 12.5215 111.818 12.429C111.818 12.2837 111.873 12.1252 111.968 11.9535C112.077 11.7818 112.2 11.6233 112.364 11.4648C112.528 11.3195 112.719 11.1874 112.924 11.095C113.129 10.9893 113.361 10.9497 113.593 10.9497C114.14 10.9497 114.522 11.1214 114.727 11.4648C114.891 11.7818 115 12.1648 115 12.6007Z" fill="#333333"/>
<path d="M11.6899 30.2468V30.1543L11.9904 30.0354L13.2468 27.09H13.4243L14.667 30.0354L14.9811 30.1543V30.2468H13.834V30.1543L14.2573 30.0354L13.875 29.1108H12.6595L12.2772 30.0486L12.7005 30.1675V30.26H11.6899V30.2468ZM12.7415 28.8731H13.7657L13.2468 27.6315L12.7415 28.8731Z" fill="#333333"/>
<path d="M16.1146 30.2471V30.1547L16.6063 30.0094V27.3281H15.7459L15.4591 28.0281H15.3772V27.1035H18.2314V28.0281H18.1494L17.8627 27.3281H17.0023V30.0094L17.4939 30.1547V30.2471H16.1146Z" fill="#333333"/>
<path d="M18.9824 30.2471V30.1546L19.3648 30.0093V27.3412L18.9824 27.2092V27.1167H21.304V27.9092H21.2221L20.9626 27.328H19.7608V28.5168H20.6212L20.8124 28.1205H20.8943V29.1244H20.8124L20.6212 28.7413H19.7608V30.0225H21.0992L21.3586 29.4017H21.4406V30.2471H18.9824Z" fill="#333333"/>
<path d="M23.9806 30.2471V30.1546L24.3903 30.0094V27.3281H23.1475V27.5658C23.1475 28.0941 23.1202 28.5564 23.0793 28.9263C23.0383 29.3093 22.97 29.6131 22.8608 29.8376C22.7788 30.0094 22.6969 30.1282 22.6013 30.1943C22.5057 30.2603 22.4101 30.2999 22.3145 30.2999C22.2462 30.2999 22.1916 30.2867 22.1779 30.2735C22.1643 30.2603 22.1506 30.2207 22.1506 30.1679V29.9433L22.1779 29.9301H22.2189C22.3964 29.9301 22.533 29.8376 22.6423 29.6527C22.7379 29.4678 22.8061 29.1904 22.8471 28.847C22.8881 28.4904 22.9017 28.0809 22.9017 27.5922V27.3413L22.5194 27.196V27.1035H25.1687V27.196L24.7727 27.3413V30.0094L25.1687 30.1546V30.2471H23.9806Z" fill="#333333"/>
<path d="M27.2718 30.2471H26.0154V30.1547L26.3978 30.0094V27.3413L26.0154 27.196V27.1035H27.2718V27.196L26.7801 27.3413V28.4111H27.2718C27.6815 28.4111 28.0092 28.4904 28.2414 28.6489C28.4735 28.8074 28.5964 29.0187 28.5964 29.2829C28.5964 29.4678 28.5418 29.6263 28.4326 29.7716C28.3233 29.9169 28.1731 30.0358 27.9819 30.115C27.7907 30.2075 27.5449 30.2471 27.2718 30.2471ZM27.2445 28.6489H26.7938V30.0226H27.2854C27.5995 30.0226 27.818 29.9565 27.9682 29.8244C28.1185 29.6924 28.1867 29.5339 28.1867 29.3225C28.1867 29.0848 28.1048 28.9131 27.9546 28.7942C27.8044 28.7017 27.5722 28.6489 27.2445 28.6489Z" fill="#333333"/>
<path d="M29.293 30.2471V30.1547L29.6753 30.0094V27.3413L29.293 27.196V27.1035H31.6145V27.896H31.5326L31.2731 27.3149H30.0714V28.5036H30.9317L31.1229 28.1074H31.2048V29.1112H31.1229L30.9317 28.7281H30.0714V30.0094H31.4097L31.6692 29.3886H31.7511V30.2339H29.293V30.2471Z" fill="#333333"/>
<path d="M34.0591 30.2471V30.1547L34.4551 30.0094V27.3413L34.0591 27.196V27.1035H35.2335V27.196L34.8375 27.3413V28.6225L36.2304 27.3281L35.8617 27.196V27.1035H36.8723V27.196L36.5718 27.2884L35.2199 28.53L36.8177 30.049L37.1318 30.1414V30.2339H36.4899L34.8375 28.6357V29.9962L35.2335 30.1414V30.2339H34.0591V30.2471Z" fill="#333333"/>
<path d="M37.7734 30.2471V30.1547L38.1695 30.0094V27.3413L37.7734 27.196V27.1035H38.9342C39.3166 27.1035 39.6307 27.1696 39.8628 27.3016C40.095 27.4337 40.2179 27.6583 40.2179 27.9489C40.2179 28.1206 40.1633 28.2791 40.0404 28.4111C39.9175 28.5432 39.7536 28.6489 39.5488 28.7281C39.3439 28.8074 39.0981 28.847 38.8386 28.847H38.5518V29.9962L38.9888 30.1414V30.2339H37.7734V30.2471ZM38.5518 27.3281V28.6357H38.9479C39.2073 28.6357 39.4122 28.5696 39.5624 28.464C39.7126 28.3451 39.7946 28.1866 39.7946 28.0017C39.7946 27.7639 39.7126 27.5922 39.5624 27.4866C39.4122 27.3809 39.1937 27.3281 38.9069 27.3281H38.5518Z" fill="#333333"/>
<path d="M40.9963 30.2471V30.1547L41.3787 30.0094V27.3413L40.9963 27.196V27.1035H43.3179V27.896H43.236L42.9765 27.3149H41.7747V28.5036H42.6351L42.8263 28.1074H42.9082V29.1112H42.8263L42.6351 28.7281H41.7747V30.0094H43.1131L43.3725 29.3886H43.4545V30.2339H40.9963V30.2471Z" fill="#333333"/>
<path d="M45.9674 30.2996C45.6397 30.2996 45.3665 30.2336 45.1207 30.1015C44.8749 29.9694 44.6974 29.7845 44.5608 29.56C44.4242 29.3354 44.356 29.0712 44.356 28.7807C44.356 28.5429 44.3969 28.3316 44.4925 28.1202C44.5745 27.9089 44.6974 27.7372 44.8612 27.5787C45.0115 27.4202 45.2027 27.3013 45.3938 27.2089C45.5987 27.1164 45.8172 27.0768 46.0494 27.0768C46.2132 27.0768 46.3498 27.09 46.459 27.1032C46.5683 27.1164 46.6775 27.156 46.7595 27.1824C46.8551 27.2221 46.937 27.2617 47.0326 27.3013L47.0463 28.0938H46.9507L46.6912 27.5259C46.5683 27.4466 46.4454 27.3806 46.3498 27.3277C46.2542 27.2881 46.1313 27.2617 46.0084 27.2617C45.7626 27.2617 45.5441 27.3145 45.3529 27.4334C45.1617 27.5523 45.0115 27.7108 44.9022 27.9089C44.793 28.107 44.7383 28.3448 44.7383 28.5957C44.7383 28.8995 44.793 29.1637 44.9022 29.3882C45.0115 29.6128 45.1617 29.7845 45.3529 29.9034C45.5441 30.0222 45.7489 30.0883 45.9947 30.0883C46.1586 30.0883 46.3088 30.0619 46.4181 30.0222C46.541 29.9826 46.6366 29.9298 46.7322 29.8637L47.019 29.3222H47.1009L47.0463 30.0619C46.9507 30.1147 46.8551 30.1543 46.7595 30.1807C46.6639 30.2204 46.541 30.2468 46.4181 30.26C46.2952 30.2864 46.1449 30.2996 45.9674 30.2996Z" fill="#333333"/>
<path d="M48.6713 30.2471V30.1547L49.1629 30.0094V27.3281H48.3026L48.0158 28.0281H47.9338V27.1035H50.788V28.0281H50.7061L50.4193 27.3281H49.5589V30.0094L50.0506 30.1547V30.2471H48.6713Z" fill="#333333"/>
<path d="M51.5391 30.2471V30.1547L51.9214 30.0094V27.3413L51.5391 27.196V27.1035H52.7135V27.196L52.3038 27.3413V29.5206L54.0928 27.5526V27.3413L53.6831 27.196V27.1035H54.8576V27.196L54.4888 27.3413V30.0094L54.8712 30.1547V30.2471H53.6968V30.1547L54.1065 30.0094V27.8564L52.3038 29.8244V30.0094L52.7135 30.1547V30.2471H51.5391Z" fill="#333333"/>
<path d="M57.3978 30.2471V30.1546L57.8075 30.0094V27.3281H56.5648V27.5658C56.5648 28.0941 56.5375 28.5564 56.4965 28.9263C56.4555 29.3093 56.3873 29.6131 56.278 29.8376C56.1961 30.0094 56.1141 30.1282 56.0185 30.1943C55.9229 30.2603 55.8273 30.2999 55.7317 30.2999C55.6635 30.2999 55.6088 30.2867 55.5952 30.2735C55.5815 30.2603 55.5679 30.2207 55.5679 30.1679V29.9433L55.5952 29.9301H55.6362C55.8137 29.9301 55.9502 29.8376 56.0595 29.6527C56.1688 29.4678 56.2234 29.1904 56.2643 28.847C56.3053 28.4904 56.319 28.0809 56.319 27.5922V27.3413L55.9366 27.196V27.1035H58.5859V27.196L58.1899 27.3413V30.0094L58.5859 30.1546V30.2471H57.3978Z" fill="#333333"/>
<path d="M60.689 30.2471H59.4326V30.1547L59.815 30.0094V27.3413L59.4326 27.196V27.1035H60.689V27.196L60.1974 27.3413V28.4111H60.689C61.0987 28.4111 61.4264 28.4904 61.6586 28.6489C61.8908 28.8074 62.0137 29.0187 62.0137 29.2829C62.0137 29.4678 61.959 29.6263 61.8498 29.7716C61.7405 29.9169 61.5903 30.0358 61.3991 30.115C61.2079 30.2075 60.9621 30.2471 60.689 30.2471ZM60.6617 28.6489H60.211V30.0226H60.7027C61.0168 30.0226 61.2353 29.9565 61.3855 29.8244C61.5357 29.6924 61.604 29.5339 61.604 29.3225C61.604 29.0848 61.522 28.9131 61.3718 28.7942C61.2216 28.7017 60.9894 28.6489 60.6617 28.6489Z" fill="#333333"/>
<path d="M62.71 30.2471V30.1547L63.0923 30.0094V27.3413L62.71 27.196V27.1035H63.8844V27.196L63.4747 27.3413V28.5168H65.2227V27.3413L64.813 27.196V27.1035H65.9875V27.196L65.6051 27.3413V30.0094L65.9875 30.1547V30.2471H64.813V30.1547L65.2227 30.0094V28.7414H63.4747V30.0094L63.8844 30.1547V30.2471H62.71Z" fill="#333333"/>
<path d="M68.1043 30.2471H66.8479V30.1547L67.2303 30.0094V27.3413L66.8479 27.196V27.1035H68.1043V27.196L67.6127 27.3413V28.4111H68.1043C68.514 28.4111 68.8417 28.4904 69.0739 28.6489C69.306 28.8074 69.429 29.0187 69.429 29.2829C69.429 29.4678 69.3743 29.6263 69.2651 29.7716C69.1558 29.9169 69.0056 30.0358 68.8144 30.115C68.6232 30.2075 68.3774 30.2471 68.1043 30.2471ZM68.077 28.6489H67.6263V30.0226H68.1179C68.432 30.0226 68.6505 29.9565 68.8008 29.8244C68.951 29.6924 69.0193 29.5339 69.0193 29.3225C69.0193 29.0848 68.9373 28.9131 68.7871 28.7942C68.6369 28.7017 68.4047 28.6489 68.077 28.6489ZM69.9342 30.2471V30.1547L70.3166 30.0094V27.3413L69.9342 27.196V27.1035H71.095V27.196L70.7127 27.3413V30.0094L71.095 30.1547V30.2471H69.9342Z" fill="#333333"/>
<path d="M71.8188 30.2471V30.1546L72.1739 30.0225L73.2254 28.6885L72.2149 27.3412L71.9008 27.2092V27.1167H73.0752V27.2092L72.6928 27.3412V27.3677L73.4986 28.4375L74.3316 27.3677V27.3412L73.9629 27.2092V27.1167H74.9461V27.2092L74.6457 27.328L73.6351 28.6092L74.7003 30.0093L75.069 30.1546V30.2471H73.8809V30.1546L74.2497 30.0225V30.0093L73.3893 28.8602L72.5153 30.0093V30.0225L72.9113 30.1546V30.2471H71.8188Z" fill="#333333"/>
<path d="M77.1995 30.2471V30.1547L77.5818 30.0094V27.3413L77.1995 27.196V27.1035H78.3739V27.196L77.9642 27.3413V28.5168H79.7122V27.3413L79.3025 27.196V27.1035H80.477V27.196L80.0946 27.3413V30.0094L80.477 30.1547V30.2471H79.3025V30.1547L79.7122 30.0094V28.7414H77.9779V30.0094L78.3876 30.1547V30.2471H77.1995Z" fill="#333333"/>
<path d="M81.187 30.2471V30.1547L81.4875 30.0358L82.7438 27.0903H82.9214L84.1641 30.0358L84.4782 30.1547V30.2471H83.3311V30.1547L83.7544 30.0358L83.372 29.1112H82.1566L81.7742 30.049L82.1976 30.1679V30.2603H81.187V30.2471ZM82.2386 28.8735H83.2628L82.7438 27.6319L82.2386 28.8735Z" fill="#333333"/>
<path d="M85.1611 30.2471V30.1547L85.5572 30.0094V27.3413L85.1611 27.196V27.1035H86.3219C86.7043 27.1035 87.0184 27.1696 87.2505 27.3016C87.4827 27.4337 87.6056 27.6583 87.6056 27.9489C87.6056 28.1206 87.551 28.2791 87.4281 28.4111C87.3052 28.5432 87.1413 28.6489 86.9364 28.7281C86.7316 28.8074 86.4858 28.847 86.2263 28.847H85.9395V29.9962L86.3765 30.1414V30.2339H85.1611V30.2471ZM85.9259 27.3281V28.6357H86.3219C86.5814 28.6357 86.7862 28.5696 86.9364 28.464C87.0867 28.3451 87.1686 28.1866 87.1686 28.0017C87.1686 27.7639 87.0867 27.5922 86.9364 27.4866C86.7862 27.3809 86.5677 27.3281 86.2809 27.3281H85.9259Z" fill="#333333"/>
<path d="M88.7937 30.2471H88.1655V30.1546L88.4933 30.0357L89.3946 28.7942C89.1351 28.7413 88.9303 28.6357 88.7937 28.4904C88.6572 28.3451 88.5889 28.1734 88.5889 28.0017C88.5889 27.7111 88.6981 27.4997 88.903 27.3412C89.1078 27.1827 89.4356 27.1167 89.8589 27.1167H91.0197V27.2092L90.6237 27.3545V30.0225L91.0197 30.1678V30.2603H89.8589V30.1678L90.2413 30.0225V28.8866H89.7633L88.7937 30.2471ZM89.8043 28.6357H90.2413V27.328H89.8453C89.5721 27.328 89.3536 27.3809 89.2171 27.4997C89.0805 27.6186 89.0122 27.7771 89.0122 27.9752C89.0122 28.1602 89.0805 28.3187 89.2307 28.4507C89.3536 28.5828 89.5585 28.6357 89.8043 28.6357Z" fill="#333333"/>
<path d="M92.0301 27.2092V27.1167H94.7341V27.2092L94.3517 27.3544V30.0357H94.8433V31.0132H94.7614L94.4473 30.2603H92.0437L91.7296 31.0132H91.6477V30.0357H92.0164C92.1667 29.6791 92.2759 29.3093 92.3305 28.913C92.3852 28.5168 92.4125 28.0941 92.4125 27.6318V27.3677L92.0301 27.2092ZM93.9556 30.0225V27.328H92.6719V27.6054C92.6719 28.0809 92.6446 28.5168 92.59 28.8998C92.5354 29.2829 92.4398 29.6659 92.3032 30.0093H93.9556V30.0225Z" fill="#333333"/>
<path d="M97.2059 30.2999C96.9738 30.2999 96.7689 30.2603 96.5641 30.181C96.3729 30.1018 96.1954 29.9829 96.0588 29.8376C95.9223 29.6923 95.7993 29.5206 95.7311 29.3225C95.6491 29.1244 95.6082 28.913 95.6082 28.6753C95.6082 28.4375 95.6491 28.2262 95.7311 28.0281C95.813 27.83 95.9223 27.6582 96.0588 27.513C96.1954 27.3677 96.3729 27.262 96.5641 27.1695C96.7553 27.0771 96.9738 27.0507 97.2059 27.0507C97.4381 27.0507 97.6429 27.0903 97.8478 27.1695C98.0526 27.2488 98.2165 27.3677 98.3531 27.513C98.5033 27.6582 98.6125 27.83 98.6945 28.0281C98.7764 28.2262 98.8174 28.4375 98.8174 28.6753C98.8174 28.913 98.7764 29.1244 98.6945 29.3225C98.6125 29.5206 98.5033 29.6923 98.3531 29.8376C98.2028 29.9829 98.039 30.0886 97.8478 30.181C97.6566 30.2471 97.4381 30.2999 97.2059 30.2999ZM97.3152 30.0886C97.5337 30.0886 97.7249 30.0357 97.8887 29.9301C98.0526 29.8244 98.1755 29.6791 98.2711 29.4942C98.3667 29.3093 98.4077 29.0847 98.4077 28.8206C98.4077 28.5036 98.3531 28.2262 98.2302 27.9885C98.1209 27.7507 97.957 27.5658 97.7658 27.4469C97.5747 27.3148 97.3562 27.2488 97.124 27.2488C96.9055 27.2488 96.7143 27.3016 96.5504 27.4073C96.3866 27.513 96.25 27.6582 96.1544 27.8432C96.0588 28.0281 96.0178 28.2526 96.0178 28.5168C96.0178 28.8338 96.0725 29.1112 96.1954 29.3489C96.3046 29.5867 96.4685 29.7716 96.6597 29.9037C96.8509 30.0357 97.0694 30.0886 97.3152 30.0886Z" fill="#333333"/>
<path d="M99.6914 30.2471V30.1546L100.074 30.0093V27.3412L99.6914 27.2092V27.1167H100.798C101.016 27.1167 101.207 27.1431 101.371 27.1959C101.549 27.2488 101.685 27.328 101.781 27.4337C101.876 27.5394 101.931 27.6714 101.931 27.8299C101.931 27.9884 101.876 28.147 101.767 28.279C101.658 28.4111 101.494 28.5168 101.289 28.5828C101.59 28.6225 101.808 28.7017 101.972 28.8338C102.136 28.9659 102.218 29.1376 102.218 29.3489C102.218 29.5206 102.163 29.6791 102.054 29.8112C101.945 29.9433 101.781 30.0622 101.59 30.1414C101.398 30.2207 101.18 30.2603 100.92 30.2603H99.6914V30.2471ZM100.729 27.328H100.456V28.5168H100.757C100.989 28.5168 101.18 28.464 101.317 28.3583C101.453 28.2526 101.521 28.1205 101.521 27.9356C101.521 27.7375 101.453 27.579 101.317 27.4865C101.194 27.3809 100.989 27.328 100.729 27.328ZM100.92 28.7413H100.456V30.0357H100.948C101.207 30.0357 101.412 29.9697 101.562 29.8508C101.713 29.732 101.795 29.5735 101.795 29.3885C101.795 29.164 101.713 29.0055 101.562 28.8998C101.412 28.7942 101.194 28.7413 100.92 28.7413Z" fill="#333333"/>
</g>
<defs>
<clipPath id="clip0">
<rect width="115" height="31" fill="white"/>
</clipPath>
</defs>
</svg>
